<svg width="1081" height="790" viewBox="0 0 1081 790" fill="none" xmlns="http://www.w3.org/2000/svg">
<path fill-rule="evenodd" clip-rule="evenodd" d="M14.0688 -289.678C72.357 -289.678 130.663 -289.678 188.951 -289.678C194.425 -286.859 200.795 -279.495 206.535 -275.785C221.91 -265.849 239.907 -259.784 261.206 -255.938C285.21 -251.604 323.691 -253.369 335.059 -267.185C338.823 -271.76 343.93 -273.576 341.772 -282.732C330.829 -291.147 305.467 -287.375 290.619 -285.047C281.492 -283.616 270.718 -285.441 263.443 -287.032C259.393 -287.914 255.344 -288.796 251.294 -289.678C301.804 -289.678 352.328 -289.678 402.836 -289.678C401.507 -283.286 397.12 -277.525 393.885 -272.808C377.395 -248.771 354.845 -235.926 320.99 -229.475C298.017 -225.097 270.806 -230.942 255.769 -219.222C239.112 -206.238 244.962 -166.318 250.014 -143.803C251.652 -136.503 254.984 -125.496 253.531 -116.348C248.285 -83.3214 235.877 -62.6865 221.241 -39.9377C213.466 -27.8547 197.796 -1.72388 201.418 20.926C202.683 28.8369 202.981 36.2369 205.254 43.0888C212.301 64.3267 223.69 81.1916 231.47 101.637C237.187 116.659 237.71 132.668 240.742 151.585C242.481 162.432 240.701 176.31 239.144 185.656C234.92 211.014 232.921 234.039 228.593 258.097C224.563 280.503 227.849 305.01 237.225 318.3C265.85 358.87 332.09 327.93 368.946 317.308C377.399 314.872 389.624 311.418 400.598 313.339C428.101 318.152 438.447 333.161 456.227 347.079C467.629 355.458 479.034 363.839 490.437 372.219C517.799 391.87 529.068 430.381 542.23 464.837C553.312 492.51 564.397 520.191 575.479 547.864C580.969 561.722 595.364 592.672 592.105 613.027C589.557 628.939 587.28 641.76 582.194 654.706C573.882 673.008 565.568 691.315 557.256 709.616C553.214 720.268 552.907 731.605 550.223 744.017C547.094 758.482 542.232 769.474 535.516 779.742C534.048 781.987 530.571 788.547 528.803 789.996C481.277 789.996 433.737 789.996 386.211 789.996C385.785 789.665 385.359 789.334 384.933 789.004C388.769 787.681 392.606 786.358 396.442 785.035C404.328 782.94 412.215 780.845 420.101 778.75C454.155 769.922 490.895 769.007 509.3 744.349C527.692 719.708 531.43 681.747 538.075 644.784C545.017 606.164 546.86 520.409 516.974 509.825C503.288 504.979 496.516 526.322 500.028 539.596C504.212 555.408 510.985 569.948 514.735 586.897C522.242 620.833 517.921 662.718 504.184 686.794C484.833 720.713 453.313 734.585 413.386 747.326C397.976 752.244 382.773 755.688 368.626 761.881C357.369 766.809 346.451 772.812 337.294 780.074C333.906 782.762 331.147 787.665 327.703 789.997C304.792 789.997 281.875 789.997 258.965 789.997C260.374 784.203 268.227 777.587 272.393 774.119C279.034 768.591 285.152 762.165 292.216 756.918C300.75 750.578 311.217 746.52 321.309 742.033C351.468 728.626 384.98 716.768 414.665 703.332C448.056 688.218 470.599 681.651 481.805 642.799C493.814 601.16 474.561 559.441 467.737 526.033C463.347 504.54 468.738 482.398 472.533 464.838C474.638 455.096 478.643 413.392 463.901 417.536C450.948 421.178 451.602 460.035 448.874 476.415C439.666 531.724 468.358 589.71 438.963 632.544C434.395 639.2 428.77 645.113 420.101 647.429C393.47 654.542 400.948 624.18 406.034 611.374C411.999 596.352 419.572 583.676 422.659 565.396C425.229 550.176 417.621 531.345 415.306 517.102C413.523 506.139 416.269 493.897 417.863 485.016C419.462 472.006 421.06 458.993 422.659 445.984C427.12 419.849 425.595 385.274 414.986 368.912C400.339 346.325 373.622 355.597 351.683 363.619C305.876 380.369 241.893 390.424 213.887 348.734C195.297 321.06 190.336 271.145 198.222 226.014C199.714 211.792 201.206 197.565 202.698 183.343C203.124 176.507 203.55 169.67 203.977 162.834C203.444 156.109 202.911 149.381 202.378 142.656C198.73 124.729 192.19 110.079 183.515 97.3395C174.342 83.8676 154.412 62.4327 158.578 36.8069C162.647 11.775 169.954 -5.98886 180.638 -23.7257C187.893 -35.7707 196.661 -47.1476 202.059 -61.1045C206.663 -73.0074 206.707 -86.5974 209.092 -101.46C209.199 -106.311 209.306 -111.164 209.412 -116.014C211.011 -126.309 208.639 -138.229 210.371 -149.423C213.317 -168.456 209.106 -201.811 204.936 -216.241C199.165 -236.21 186.848 -249.958 166.571 -254.942C158.597 -256.902 148.519 -256.266 139.076 -256.265C123.838 -256.265 108.596 -256.265 93.3577 -256.265C86.9642 -256.265 80.5686 -256.265 74.1751 -256.265C57.2464 -259.367 43.4879 -266.178 31.6537 -274.458C26.1735 -278.296 16.9451 -283.425 14.0688 -289.678ZM745.249 -289.678C755.692 -289.678 766.137 -289.678 776.581 -289.678C778.237 -257.878 807.909 -232.286 845.638 -239.73C862.234 -243.004 874.403 -249.869 888.799 -254.615C897.916 -257.621 907.578 -259.007 917.892 -260.9C936.632 -264.339 956.322 -256.869 974.801 -260.238C992.179 -263.406 1004.04 -274.596 1009.65 -289.678C1027.55 -289.678 1045.46 -289.678 1063.36 -289.678C1060.38 -287.032 1057.39 -284.385 1054.41 -281.739C1048.13 -276.523 1041.93 -269.284 1037.14 -262.554C1023.2 -242.934 1016.26 -217.887 1010.93 -189.121C1006.23 -163.792 1010.08 -127.709 987.91 -120.649C981.01 -118.452 971.771 -120.031 966.489 -122.303C954.856 -127.307 948.187 -136.579 945.708 -151.081C944.73 -156.804 945.198 -163.93 946.028 -169.274C949.71 -192.993 945.965 -212.854 929.723 -219.222C920.981 -222.648 908.117 -220.225 900.309 -217.899C881.909 -212.418 867.296 -203.297 847.557 -199.375C815.156 -192.937 794.132 -217.705 761.235 -209.299C745.854 -205.368 735.24 -196.148 724.468 -187.467C704.649 -171.495 686.997 -155.348 677.151 -128.918C671.347 -113.338 670.007 -95.1713 666.281 -77.6474C660.802 -51.8816 654.875 -27.2957 643.581 -7.52182C629.48 17.167 610.704 35.8188 582.516 46.0648C575.855 48.4858 552.96 53.1788 556.938 63.5967C559.544 69.2147 573.868 70.9817 582.835 69.5507C607.075 65.6837 621.249 58.9757 636.546 46.7268C649.766 36.1419 660.499 21.386 670.436 7.36404C683.212 -10.6649 696.43 -27.9517 704.965 -50.5226C710.59 -65.4005 712.404 -82.5654 716.794 -98.8163C725.08 -129.493 741.93 -149.715 770.825 -159.019C791.22 -165.586 814.03 -165.369 837.965 -169.273C850.788 -171.365 868.353 -172.94 881.765 -170.265C893.688 -167.887 904.519 -162.911 910.858 -154.718C918.529 -144.805 922.275 -132.347 925.245 -117.339C927.042 -108.258 926.988 -99.1423 930.041 -91.5383C936.805 -74.6844 961.877 -65.1415 987.269 -69.3755C995.249 -70.7065 1002.58 -72.3655 1008.37 -75.9914C1022.85 -85.0524 1025.74 -102.869 1030.43 -122.301C1036.53 -147.574 1041.37 -173.357 1050.25 -196.066C1056.13 -211.109 1062.98 -225.832 1071.99 -237.744C1088.28 -259.281 1115.27 -273.389 1136.57 -289.677C1158.42 -289.677 1180.27 -289.677 1202.11 -289.677C1200.27 -279.513 1190.96 -270.854 1184.85 -264.537C1175.96 -255.344 1165.13 -246.975 1152.88 -241.382C1129.82 -230.855 1104.13 -222.623 1089.58 -203.343C1075.09 -184.151 1067.2 -160.082 1060.48 -132.555C1049.71 -88.3873 1053.86 -43.8666 1007.41 -35.6357C994.598 -33.3647 978.368 -39.8947 969.047 -42.9126C937.08 -53.2656 900.958 -61.0005 882.405 -85.2524C865.083 -107.895 863.657 -128.627 829.972 -135.862C823.126 -137.333 812.37 -138.132 804.715 -136.524C799.329 -135.393 793.533 -133.916 789.05 -131.562C754.174 -113.253 761.237 -74.4844 745.888 -37.6197C734.424 -10.0848 714.697 8.07108 697.931 29.8599C674.251 60.6357 653.729 91.3185 610.33 101.97C565.01 113.093 528.495 90.9645 501.948 74.8466C489.579 67.3367 476.811 61.6987 465.181 54.0078C453.399 46.2158 445.404 35.1799 435.768 25.2299C433.229 22.608 427.859 17.486 423.299 20.268C420.858 29.4109 426.315 38.1739 429.693 43.7538C441.209 62.7797 458.917 71.8437 478.609 82.4556C517.399 103.359 545.472 157.783 610.33 142.988C619.068 140.563 627.809 138.136 636.546 135.711C666.053 123.866 687.614 108.323 703.366 82.4556C715.578 62.4007 723.319 37.8679 736.936 19.276C752.908 -2.53186 779.404 -12.9438 793.205 -37.2877C798.703 -46.9866 800.182 -59.5405 802.477 -72.6814C804.165 -82.3504 803.599 -90.8983 807.592 -97.8213C815.749 -111.961 834.548 -107.796 842.76 -96.8293C850.241 -86.8384 857.892 -67.3665 851.393 -51.1816C847.373 -41.1726 838.894 -33.8137 833.489 -24.3887C826.141 -11.5798 818.288 0.379089 807.273 9.35104C795.195 19.187 778.053 29.9459 768.587 42.0988C762.143 50.3738 754.776 57.7578 748.765 66.5767C740.879 79.1456 732.991 91.7175 725.106 104.285C713.736 120.161 697.48 132.178 687.7 149.272C684.393 155.051 680.349 166.322 687.06 171.435C692.497 175.577 705.643 174.413 711.997 172.097C730.491 165.355 741.19 150.311 749.723 133.395C772.445 88.3525 799.419 54.6388 848.833 37.1379C866.891 30.7429 895.004 25.585 918.21 30.8529C941.79 36.2059 960.024 49.7948 968.405 70.8777C987.044 117.765 961.85 186.265 941.229 213.445C930.939 227.009 912.707 233.267 902.864 246.193C898.177 252.346 897.127 261.251 906.7 263.062C921.944 265.946 942.347 251.38 950.82 245.532C984.966 221.957 989.944 200.227 999.416 151.92C1000.48 141.446 1001.55 130.969 1002.61 120.496C1006.95 93.8825 1004.63 60.0887 994.301 42.4318C980.528 18.895 955.23 4.86908 927.161 -3.87787C915.653 -6.52386 904.141 -9.17084 892.632 -11.8168C886.251 -14.5508 879.704 -22.7478 885.599 -31.0017C891.573 -39.3667 907.699 -41.0396 921.407 -38.2787C947.886 -32.9457 970.721 -27.3907 990.144 -15.1238C1005.77 -5.25888 1019.65 8.42004 1027.23 26.5549C1035.28 45.8008 1036.12 69.6556 1047.37 85.1035C1057.71 99.3035 1077.22 98.0625 1097.25 102.635C1111.1 106.494 1124.96 110.354 1138.81 114.212C1154.65 119.346 1175.58 127.497 1197.64 123.143C1241.75 114.433 1252.55 77.1016 1282.04 54.0098C1312.31 30.3079 1352.23 16.39 1381.79 -8.17682C1396.17 -20.1267 1400.63 -43.8886 1412.16 -58.7865C1418.92 -67.5115 1429.12 -73.4534 1438.06 -79.9564C1449.57 -88.7764 1461.08 -97.5993 1472.59 -106.419C1481.96 -114.033 1491.36 -123.928 1498.8 -133.543C1503.39 -138.835 1507.97 -144.129 1512.55 -149.421C1518.5 -154.368 1524.87 -159.373 1533.01 -161.991C1540.75 -164.478 1551.8 -165.439 1560.83 -163.645C1587.41 -158.365 1596.86 -149.95 1605.91 -126.928C1607.93 -119.1 1609.96 -111.27 1611.98 -103.442C1625.69 -36.5507 1581.91 -0.758911 1569.14 45.7398C1561.66 72.9906 1576.72 97.2425 1571.7 125.458C1567.06 151.492 1557.52 170.261 1548.68 190.953C1532.42 229.012 1509.43 263.072 1478.34 285.887C1467.85 293.587 1457.13 298.709 1441.58 301.434C1430.63 303.352 1414.86 298.862 1405.13 297.134C1382.5 293.117 1365 302.726 1353.66 312.019C1328.68 332.483 1315.34 377.519 1301.54 409.931C1293.99 427.663 1285.43 448.223 1268.29 455.909C1256.48 461.207 1239.14 460.347 1227.69 455.247C1204.91 445.096 1191.8 428.634 1164.07 421.507C1158.2 420 1149.07 417.711 1141.37 419.522C1131.22 421.91 1124.09 428.711 1116.43 433.746C1091.16 450.351 1070.51 469.654 1062.72 504.203C1056.26 532.853 1064.39 559.48 1048.97 579.952C1039.86 592.044 1023.25 597.982 1005.49 601.122C997.828 602.477 986.023 601.213 983.11 596.491C979.615 590.826 983.656 579.035 985.028 574.328C988.993 560.726 998.049 537.214 993.98 519.75C991.594 509.509 984.615 502.384 979.913 494.28C972.834 482.077 967.066 467.91 962.969 452.932C942.315 377.434 980.63 312.638 1030.11 292.503C1061.17 279.865 1098.52 295.818 1126.34 302.096C1137.02 304.504 1160.54 305.93 1165.03 297.796C1171.6 285.883 1149.27 265.459 1142.97 261.41C1124.29 249.419 1090.8 251.49 1073.91 237.925C1064.52 230.384 1063.2 219.395 1060.8 204.185C1059.7 197.215 1060.17 188.6 1062.4 183.015C1072.49 157.799 1100.71 169.058 1115.79 180.7C1141.96 200.895 1157.42 231.913 1186.45 249.503C1197.44 256.163 1216.81 261.676 1233.45 256.448C1291.27 238.274 1310.56 154.153 1345.34 109.25C1357.86 93.0915 1387.51 71.3606 1418.24 81.1336C1438.95 87.7205 1456.81 110.071 1446.05 138.359C1435.5 166.113 1415.42 183.353 1407.05 214.439C1401.56 234.828 1398.96 268.652 1416 277.618C1418.26 278.806 1422.32 280.662 1426.55 279.603C1443.85 275.271 1445.85 227.222 1451.49 208.486C1460.55 178.377 1478.61 158.335 1489.21 130.421C1495.38 114.187 1493.43 92.9325 1485.7 80.1426C1480.37 71.3426 1472.07 61.9917 1464.28 55.6647C1454.3 47.5718 1443.11 40.7278 1429.43 36.4799C1403.9 28.5529 1376.57 36.9839 1358.13 45.4108C1325.88 60.1527 1304.05 82.8866 1286.84 113.221C1271.95 139.462 1259.2 178.626 1236 195.586C1216.57 209.792 1193.74 203.469 1176.22 192.609C1146.63 174.275 1112.74 123.006 1061.76 146.299C1047.18 152.962 1038.36 165.644 1034.9 184.008C1031.48 202.184 1036.42 224.63 1028.83 237.595C1016.18 259.183 984.83 264.837 965.206 279.273C934.575 301.805 919.49 338.456 911.494 384.793C904.873 423.162 913.786 464.963 922.684 493.951C925.578 503.381 939.147 524.627 933.234 536.291C925.676 551.201 908.215 556.02 892.311 562.423C867.501 572.412 844.007 583.38 815.901 588.885C800.136 591.972 776.858 583.979 764.427 588.885C755.756 592.308 751.564 600.434 748.442 609.724C746.904 614.299 744.779 621.164 746.205 627.586C748.684 638.757 761.271 646.857 775.298 642.802C788.597 638.957 801.189 633.492 815.582 629.901C830.059 626.289 845.412 628.622 861.62 625.932C874.853 623.736 900.978 624.375 914.053 626.594C935.542 630.24 954.221 631.873 975.438 635.525C981.725 635.635 988.014 635.746 994.3 635.856C1007.72 638.117 1020.89 637.157 1031.71 641.479C1063.81 654.303 1070.83 677.954 1087.02 706.643C1100.89 731.225 1116.87 750.794 1116.75 789.999C1094.91 789.999 1073.05 789.999 1051.21 789.999C1051.35 779.886 1052.88 768.59 1051.21 758.575C1045.96 727.088 1034.06 701.965 1012.2 687.788C973.495 662.674 879.021 661.304 829.01 677.534C815.106 682.046 802.814 688.988 792.563 697.381C776.75 710.328 768.861 729.704 760.911 750.967C756.469 762.848 752.439 774.184 747.803 785.038C747.271 786.692 746.737 788.346 746.205 790C735.016 790 723.824 790 712.635 790C712.635 789.669 712.635 789.338 712.635 789.008C719.122 772.335 728.332 748.415 723.825 723.845C718.93 697.155 707.553 679.056 701.445 654.38C695.987 632.332 703.717 598.079 710.077 580.946C714.849 568.09 721.746 552.222 733.735 546.876C744.222 542.2 759.486 544.172 772.101 541.914C801.421 536.667 824.98 533.131 839.559 513.136C860.746 484.078 879.502 428.973 867.054 377.185C861.638 354.651 855.07 335.648 850.109 311.69C848.263 302.776 846.629 289.99 848.51 279.604C853.391 252.667 866.49 233.484 883.678 219.402C889.996 214.227 896.64 208.099 901.582 201.54C913.217 186.1 920.492 168.348 928.118 148.284C941.442 113.23 932.576 78.9836 904.14 66.9117C881.408 57.2617 855.052 68.6077 841.476 78.8196C818.599 96.0295 800.503 120.034 785.847 145.637C776.158 162.562 772.607 184.125 758.032 195.916C727.169 220.884 691.75 208.202 656.044 198.893C646.987 197.57 637.927 196.247 628.868 194.924C623.221 194.814 617.572 194.703 611.923 194.593C604.251 194.593 596.577 194.593 588.904 194.593C584.748 194.483 580.591 194.372 576.435 194.262C571.853 194.262 567.27 194.262 562.687 194.262C553.521 192.706 544.378 192.643 536.151 190.293C516.66 184.725 484.685 173.215 475.406 157.545C470.829 149.814 470.614 138.291 467.733 128.767C464.633 118.522 459.525 109.779 453.985 101.974C433.972 73.7786 403.787 54.0828 392.92 16.633C384.611 -12.0028 397.435 -55.6236 387.165 -82.9324C380.103 -101.713 368.185 -109.936 350.079 -117.334C343.957 -119.835 333.045 -122.886 326.74 -117.996C316.94 -110.395 316.743 -87.6794 311.713 -75.3254C303.931 -56.2116 294.612 -39.1457 289.973 -16.4468C281.919 22.9699 296.65 66.5807 305.639 96.3495C308.09 107.484 310.541 118.623 312.992 129.758C319.011 158.093 315.584 193.188 325.461 218.077C339.012 252.226 378.715 231.281 407.308 226.347C423.676 223.522 442.98 232.874 451.747 238.917C471.376 252.443 479.556 276.539 493.63 295.811C503.011 308.657 516.555 317.776 526.241 330.212C536.268 343.088 545.313 355.649 553.735 370.568C559.383 383.247 565.032 395.929 570.68 408.608C579.57 428.46 593.217 447.427 610.644 458.555C622.752 466.287 637.974 469.352 653.486 473.771C662.006 476.198 682.772 483.438 693.13 481.71C700.977 480.401 708.729 480.556 715.51 478.402C750.401 467.32 781.584 446.121 788.724 405.961C790.746 394.584 789.142 379.212 787.445 369.244C786.486 360.975 785.527 352.704 784.568 344.435C780.264 321.831 776.483 288.903 782.01 264.385C788.347 236.283 800.934 215.963 815.58 196.575C823.358 188.086 831.14 179.594 838.919 171.105C845.088 163.035 851.539 154.078 854.265 142.658C858.972 122.936 847.761 112.829 868.013 105.279C871.398 104.017 876.575 102.411 881.441 103.625C906.725 109.937 891.637 143.524 884.638 159.197C872.22 187.004 850.042 203.663 834.763 228C826.091 241.814 821.875 258.102 818.138 277.286C812.802 304.682 817.113 343.998 821.974 368.913C824.256 380.607 828.541 396.148 826.13 410.922C821.429 439.739 815.321 454.132 801.193 472.448C798.636 475.535 796.077 478.623 793.52 481.71C779.342 493.408 764.257 502.129 743.645 507.511C718.523 514.07 681.677 506.571 658.603 501.557C639.778 497.466 621.247 496.855 607.129 488.326C569.676 465.698 555.422 420.499 532.636 382.807C518.621 359.623 498.497 342.343 478.285 325.581C464.546 314.188 456.684 296.194 442.797 284.895C419.243 265.728 380.111 281.55 356.475 289.195C347.63 291.18 338.784 293.165 329.939 295.149C305.955 299.889 275.594 294.259 265.358 280.925C257.429 270.598 257.261 251.212 260.562 234.947C266.052 207.899 275.031 170.605 269.514 137.035C267.915 126.12 266.317 115.202 264.718 104.287C260.456 89.9545 256.192 75.6186 251.93 61.2857C248.196 48.9548 239.618 23.126 242.338 6.04507C243.927 -3.93286 243.971 -13.5398 246.494 -22.4017C253.967 -48.6396 263.862 -71.9854 271.431 -98.1503C273.563 -108.844 275.695 -119.542 277.826 -130.236C280.449 -144.559 277.687 -161.627 284.539 -171.253C301.995 -195.771 362.239 -176.156 387.806 -192.423C401.582 -201.188 404.704 -218.251 411.465 -234.432C417.087 -247.89 426.568 -259.178 434.164 -270.818C438.214 -277.102 442.264 -283.388 446.314 -289.673C465.174 -289.563 484.041 -289.452 502.903 -289.342C501.411 -287.798 499.919 -286.255 498.427 -284.711C495.337 -281.183 492.246 -277.654 489.155 -274.126C482.241 -265.02 476.004 -255.359 473.49 -241.709C468.77 -216.102 487.227 -197.275 479.244 -176.215C472.177 -157.569 459.241 -143.608 446.634 -130.567C437.967 -121.601 428.51 -112.953 423.295 -100.466C417.949 -87.6653 418.793 -65.6525 422.336 -51.1796C429.472 -22.0258 455.529 10.9641 480.843 21.262C500.426 29.2279 528.196 22.708 544.146 15.969C587.14 -2.19586 618.038 -36.2027 632.067 -84.5884C641.299 -116.432 639.184 -154.535 655.405 -178.2C683.816 -219.646 745.336 -214.474 745.249 -289.678ZM539.034 -289.678C558.322 -289.568 577.615 -289.457 596.902 -289.347C596.476 -288.906 596.05 -288.465 595.624 -288.024C593.536 -283.476 588.41 -279.899 585.073 -276.447C573.4 -264.37 557.78 -252.357 550.864 -235.761C543.755 -218.702 549.184 -198.591 545.429 -178.536C541.407 -157.061 533.294 -141.196 525.926 -123.626C521.239 -112.448 502.504 -73.4274 521.451 -65.0775C536.568 -58.4155 551.241 -71.7775 556.619 -80.2934C566.778 -96.3793 563.387 -119.86 567.169 -143.803C571.615 -171.957 572.678 -200.536 584.753 -220.545C598.851 -243.903 623.954 -251.185 646.457 -265.861C652.497 -269.8 659.09 -275.3 663.402 -281.077C665.214 -283.944 667.026 -286.811 668.837 -289.677C681.73 -289.677 694.629 -289.677 707.522 -289.677C699.083 -260.853 687.828 -248.271 666.28 -233.444C649.682 -222.024 630.798 -215.307 618.962 -199.043C609.425 -185.937 606.511 -168.81 602.018 -150.087C591.235 -105.149 589.013 -59.1295 558.537 -34.9747C547.338 -26.0988 528.205 -11.5238 508.023 -19.7588C499.668 -23.1677 491.304 -28.8918 485.323 -34.9747C473.901 -46.5936 466.128 -73.3144 474.452 -95.1773C484.85 -122.487 504.875 -140.924 513.457 -170.596C519.264 -190.672 511.357 -218.275 516.015 -240.06C518.945 -253.767 524.81 -265.22 531.041 -275.785C533.706 -280.416 536.371 -285.047 539.034 -289.678ZM810.15 -289.678C838.921 -289.678 867.701 -289.678 896.472 -289.678C896.366 -289.457 896.259 -289.237 896.152 -289.016C891.038 -287.252 885.921 -285.488 880.806 -283.723C863.378 -276.652 842.805 -270.399 823.578 -279.754C818.796 -282.08 812.723 -285.089 810.15 -289.678ZM1664.74 -289.678C1678.06 -289.678 1691.38 -289.678 1704.7 -289.678C1702.89 -279.755 1701.08 -269.83 1699.27 -259.907C1693.83 -234.837 1688.71 -211.139 1682.96 -187.797C1680.12 -176.254 1677.89 -155.808 1688.72 -152.072C1699.86 -148.225 1709.3 -165.573 1712.38 -172.25C1722.26 -193.712 1723.78 -222.558 1732.2 -245.021C1736.25 -254.833 1740.3 -264.648 1744.35 -274.461C1746.9 -279.532 1749.46 -284.606 1752.02 -289.677C1777.49 -289.567 1802.96 -289.456 1828.43 -289.346C1828.22 -289.236 1828 -289.125 1827.79 -289.015C1821.61 -285.707 1815.43 -282.399 1809.25 -279.091C1792.21 -268.786 1777.21 -257.787 1768.96 -238.405C1760.65 -218.877 1758.29 -195.156 1752.66 -172.249C1742.8 -132.17 1722.34 -82.5954 1688.08 -68.7145C1649.52 -53.0926 1649.77 -121.512 1642.36 -147.11C1630.54 -187.952 1586.8 -227.744 1530.14 -214.921C1496.83 -207.381 1482.36 -191.528 1460.44 -173.242C1455.43 -168.171 1450.43 -163.097 1445.42 -158.026C1426.54 -142.269 1407.08 -122.678 1394.26 -100.8C1380.37 -77.0804 1372.82 -48.2686 1356.86 -27.0357C1338.32 -2.37488 1307.16 8.90005 1280.77 25.559C1269.17 32.8789 1258.08 40.9159 1247.52 49.3748C1236.37 58.2948 1226.23 68.7097 1212.03 74.5146C1176.86 88.8916 1143.07 69.2437 1117.39 58.6367C1105.2 53.6028 1092.36 50.2748 1081.59 43.7518C1061.55 31.6269 1041.12 8.71204 1049.29 -26.7047C1054.84 -43.1316 1060.38 -59.5635 1065.92 -75.9914C1068.9 -92.6393 1071.89 -109.292 1074.87 -125.939C1083.64 -155.833 1103.38 -183.777 1130.5 -194.08C1142.49 -198.634 1162.85 -199.805 1170.15 -190.111C1180.26 -176.659 1175.84 -155.332 1195.72 -151.409C1200.4 -150.487 1206.72 -151.06 1210.43 -152.401C1213.95 -154.386 1217.46 -156.371 1220.98 -158.355C1230.18 -165.533 1247.12 -197.671 1235.69 -212.934C1229.61 -221.038 1206.35 -225.025 1211.07 -240.388C1215 -253.189 1226.37 -263.021 1232.81 -274.128C1233.71 -275.682 1239.38 -289.558 1239.52 -289.675C1262.11 -289.675 1284.71 -289.675 1307.3 -289.675C1304.93 -279.384 1306.51 -268.661 1304.42 -259.243C1289.02 -189.827 1272.65 -115.138 1202.76 -102.122C1169.07 -95.8493 1148.94 -148.846 1114.83 -124.615C1098.55 -113.043 1085.64 -60.4255 1093.73 -30.0117C1098.81 -10.9229 1109.69 3.5441 1124.43 12.659C1141.83 23.423 1171.16 29.7879 1197.32 22.913C1211.56 19.171 1225.04 13.249 1237.92 8.02805C1275.03 -7.00586 1309.67 -20.0748 1329.04 -53.1666C1338.98 -70.1385 1344.06 -91.8703 1352.06 -110.722C1359.24 -127.654 1372.73 -142.815 1385.95 -153.724C1412.8 -175.888 1448.84 -195.696 1469.07 -224.18C1477.05 -235.404 1484.66 -252.835 1477.07 -271.151C1473.78 -279.088 1467.96 -283.637 1463 -289.675C1472.38 -289.675 1481.76 -289.675 1491.14 -289.675C1494.13 -279.485 1504.29 -266.379 1513.84 -262.882C1519.38 -260.848 1527.87 -263.676 1533.02 -264.867C1548.5 -268.448 1571.44 -276.098 1576.18 -289.676C1594.29 -289.676 1612.41 -289.676 1630.53 -289.676C1626.68 -271.365 1582.59 -246.203 1611.03 -227.819C1650.58 -202.257 1664.97 -251.689 1664.74 -289.678ZM1351.1 -289.678C1362.82 -289.678 1374.55 -289.678 1386.27 -289.678C1389.48 -289.678 1396.84 -290.736 1398.74 -289.016C1416.26 -274.884 1410.76 -230.271 1399.38 -214.26C1383.6 -192.058 1358.8 -177.823 1342.47 -156.042C1335.05 -146.141 1327.47 -135.001 1322.33 -122.964C1315.22 -106.312 1309 -88.5943 1299.95 -73.6774C1285.53 -49.9146 1263.93 -33.6297 1237.28 -22.4067C1214.79 -12.9358 1178.26 -9.81284 1159.27 -25.0527C1151.86 -30.9997 1143.8 -50.0716 1157.68 -55.1535C1168.11 -58.9735 1182.24 -48.5426 1196.36 -50.8536C1217.61 -54.3306 1232.85 -58.4375 1246.88 -68.7155C1274.04 -88.6204 1290.11 -131.787 1308.9 -161.334C1317.85 -174.785 1326.8 -188.239 1335.76 -201.69C1342.71 -211.452 1350.72 -221.702 1354.94 -234.106C1360.91 -251.691 1356.21 -274.683 1351.1 -289.678ZM1860.72 -259.577C1861.15 -259.577 1861.57 -259.577 1862 -259.577C1862 -242.488 1862 -225.394 1862 -208.307C1855.08 -206.995 1849.06 -202.328 1844.1 -198.714C1819.26 -180.634 1812.62 -157.173 1806.69 -119.326C1805.23 -109.997 1806.35 -97.7743 1807.65 -89.5553C1809.73 -76.3994 1806.96 -61.4075 1804.13 -51.8466C1790.28 -5.08487 1750.15 35.2059 1712.37 57.9727C1695.27 68.2827 1641.59 92.4035 1618.06 73.5197C1597.04 56.6558 1613.29 16.137 1627.65 4.71707C1646.73 -10.4598 1673.63 -14.7358 1697.99 -25.0537C1722.29 -35.3477 1743.67 -50.7736 1758.41 -71.0325C1783.18 -105.072 1781.59 -164.895 1799.33 -206.653C1808.03 -227.124 1827.48 -240.235 1845.37 -251.308C1850.49 -254.063 1855.61 -256.82 1860.72 -259.577ZM32.6125 -255.938C61.8606 -255.769 56.3823 -199.974 80.5696 -192.429C88.875 -189.838 96.0244 -199.94 97.5148 -205.66C99.3028 -212.524 98.0057 -216.375 101.351 -220.876C110.169 -232.741 140.476 -230.078 154.423 -224.183C182.01 -212.525 197.968 -158.752 191.189 -113.371C189.513 -102.144 190.175 -91.9473 187.992 -81.6164C184.676 -65.9185 176.303 -49.9406 165.292 -41.9227C145.016 -27.1567 116.029 -46.0746 103.908 -57.4695C68.836 -90.4413 50.1588 -138.164 34.2112 -191.105C30.2822 -204.148 27.3788 -217.647 23.9805 -231.79C23.0381 -235.712 20.211 -243.18 21.1031 -247.006C23.331 -251.835 28.2081 -253.26 32.6125 -255.938ZM0.00193291 -232.783C4.69925 -227.564 8.25413 -209.992 10.8725 -202.352C15.331 -189.339 18.9526 -174.944 22.3818 -160.673C23.447 -154.279 24.513 -147.882 25.5791 -141.488C29.3998 -127.336 34.8761 -114.155 40.2858 -101.463C50.1076 -78.4204 70.1224 -49.8066 87.923 -34.9757C98.143 -26.4608 110.714 -18.3828 117.656 -6.52887C128.3 11.646 123.913 48.2138 129.486 70.8737C140.58 115.988 160.91 149.772 170.728 195.909C182.441 250.953 156.94 320.965 177.442 369.569C188.683 396.219 213.222 406.43 245.22 411.909C251.507 412.018 257.797 412.13 264.083 412.24C277.936 412.13 291.792 412.018 305.646 411.909C321.919 411.883 342.482 408.27 355.84 413.562C400.68 431.33 377.619 496.4 379.819 547.86C380.879 572.651 386.253 601.151 381.417 626.255C372.741 671.296 349.021 699.096 311.4 714.243C290.571 722.63 263.752 723.015 242.982 731.443C223.869 739.199 210.787 752.599 200.141 769.152C196.31 775.107 190.266 782.351 188.631 789.991C172.86 789.991 157.085 789.991 141.314 789.991C142.687 783.162 148.855 776.114 152.184 770.475C158.929 759.05 165.06 745.831 169.13 732.104C173.402 717.692 172.408 703.999 185.115 698.365C203.694 690.127 234.526 698.932 257.689 695.057C272.345 692.605 285.389 691.735 297.013 686.787C325.32 674.739 346 647.198 352.643 612.691C355.382 598.465 354.943 573.633 352.643 558.774C352.963 544.001 353.283 529.222 353.602 514.449C350.267 492.739 349.18 482.442 338.575 468.801C328.381 455.687 299.545 446.018 273.994 450.277C270.158 450.277 266.32 450.277 262.484 450.277C252.943 451.818 239.116 451.529 229.874 449.946C194.437 443.878 169.331 431.815 153.782 405.622C145.64 391.906 141.099 375.467 137.797 356.666C137.157 347.074 136.518 337.48 135.878 327.888C134.397 318.224 134.01 304.051 135.558 293.817C135.984 285.659 136.411 277.498 136.837 269.339C138.903 255.612 139.444 231.16 137.157 217.076C133.279 193.202 128.231 174.354 120.212 155.55C111.791 135.804 99.645 118.836 93.6757 96.3405C87.4378 72.8306 93.5269 39.0519 87.921 15.961C82.5984 -5.96283 71.2359 -28.4637 59.4665 -44.2416C49.6727 -57.3716 37.1881 -68.4495 27.1758 -81.2894C22.4398 -87.3624 6.29692 -106.31 0 -109.075C0.00193305 -150.305 0.00193291 -191.551 0.00193291 -232.783ZM1862 145.961C1851.31 145.841 1840.73 142.305 1832.59 138.684C1801.52 124.878 1747.5 77.2646 1774.4 30.1879C1784.31 12.841 1806.59 -6.84186 1821.72 -19.4298C1829.67 -26.0457 1838.64 -34.9017 1842.82 -45.2306C1850.58 -64.4195 1843.04 -85.6294 1839.94 -104.109C1837.49 -118.7 1844.74 -131.552 1850.17 -138.841C1853.22 -142.939 1856.81 -147.987 1862 -149.757C1862 -101.467 1862 -53.1635 1862 -4.87485C1854.75 -1.94186 1847.14 15.754 1842.82 22.9109C1835.66 34.7449 1827.01 45.6358 1822.99 60.6197C1814.86 90.9555 1840.47 110.209 1862 114.868C1862 125.231 1862 135.598 1862 145.961ZM1518.31 -71.3625C1505.02 -65.6725 1495.41 -62.8775 1488.58 -50.8536C1479.8 -35.4027 1488.53 -13.9528 1493.05 -0.57489C1500.13 20.351 1501.87 43.3098 1507.12 66.9047C1510.27 81.0416 1519.13 95.2915 1516.07 114.537C1512.05 139.836 1498.63 156.889 1487.94 175.732C1478.68 192.038 1470.5 209.909 1465.24 229.981C1463.37 237.092 1461.45 249.536 1467.79 252.805C1474.42 256.524 1481.25 248.483 1484.1 245.528C1496.17 233.034 1503.61 217.424 1512.55 201.534C1523.78 181.596 1531.48 158.214 1537.49 133.062C1538.34 126.006 1539.2 118.948 1540.05 111.892C1544.29 85.3856 1531.22 65.2557 1535.57 40.1129C1537.76 27.4899 1540.23 16.072 1544.53 5.71207C1549.92 -7.31085 1557.15 -19.1548 1559.87 -34.9737C1564.04 -59.2135 1539.53 -71.5755 1518.31 -71.3625ZM0.00193291 401.987C0.00193291 380.488 0.00193291 358.983 0.00193291 337.484C8.88141 337.223 17.8324 334.074 24.6194 331.199C55.6738 318.045 75.4026 287.762 64.9032 239.242C61.0081 221.241 53.8548 205.6 47.6391 189.955C39.4014 169.224 33.3432 149.196 29.0963 124.129C24.9576 99.7005 33.3326 72.9386 39.6469 56.9807C43.9334 46.1458 51.252 30.4049 46.6803 14.971C41.7143 -1.79688 25.1693 -20.1508 13.1109 -30.0157C8.74223 -33.2127 4.3716 -36.4107 0.0028996 -39.6087C0.109217 -47.6566 0.216502 -55.7076 0.32282 -63.7555C0.64274 -63.4245 0.96266 -63.0935 1.28161 -62.7635C8.20774 -56.3695 15.1368 -49.9726 22.0629 -43.5786C39.0767 -29.6437 59.6946 -14.5138 68.4213 7.69205C71.173 14.696 71.8255 22.146 73.2173 30.8469C74.5772 39.3539 71.868 49.3368 70.3399 55.9868C65.9451 75.1096 59.7516 98.8085 64.9051 121.481C69.0709 139.81 76.3121 154.033 82.8091 169.445C90.6833 188.126 97.2441 207.265 101.992 229.317C107.37 254.3 106.128 288.217 100.393 311.681C87.1681 365.779 63.6051 400.232 0.00193291 401.987ZM0.00193291 -7.52084C12.7581 -3.35886 30.7964 11.337 27.4967 31.8419C24.745 48.9478 17.8981 62.4087 12.79 77.1586C8.32856 90.0425 6.33848 102.73 3.83808 118.175C2.53133 126.251 1.8567 138.288 3.19823 147.284C6.20993 167.475 9.6034 185.323 16.3063 201.533C21.7439 214.683 30.5026 225.5 32.9315 241.227C36.3491 263.364 13.5623 295.832 0.000966456 299.775C0.00193298 197.353 0.00193291 94.9005 0.00193291 -7.52084ZM372.465 88.0746C384.07 88.3965 389.116 96.1645 394.205 103.29C404.539 117.757 414.778 133.653 420.421 152.908C425.274 169.464 419.438 189.091 407.313 193.264C393.788 197.919 386.815 174.875 383.335 166.471C376.279 149.434 364.963 135.58 358.717 118.507C355.292 109.146 358.029 96.7515 363.833 92.0445C366.367 89.9895 369.284 89.6996 372.465 88.0746ZM1709.5 93.6975C1742.73 93.1595 1754.57 111.245 1772.8 125.783C1780.9 132.067 1789 138.353 1797.1 144.638C1808.77 152.245 1821.05 158.161 1833.23 165.477C1842.82 170.438 1852.41 175.401 1862 180.362C1862 193.592 1862 206.826 1862 220.056C1852.52 218.803 1834.55 206.986 1826.83 202.194C1794.03 181.826 1736.76 137.648 1683.92 161.177C1660.46 171.622 1645.12 194.567 1631.17 215.095C1612.76 242.179 1597.96 272.607 1580.65 301.098C1572.02 315.31 1561.81 328.018 1551.88 340.792C1538.8 357.611 1519.27 371.079 1494.65 375.855C1481.77 378.355 1466.42 375.943 1454.37 373.87C1437.1 370.9 1410.35 380.569 1400.66 386.44C1371.89 403.874 1356.58 431.262 1339.59 460.865C1328.11 480.876 1318.26 502.935 1301.23 517.098C1289.94 526.481 1278.12 535.296 1261.9 539.591C1243.18 544.55 1213.94 536.819 1195.72 533.637C1172.21 529.531 1158.96 540.634 1145.85 522.06C1139.67 513.313 1137 501.762 1132.74 490.966C1130.15 484.418 1126.45 478.595 1125.07 470.788C1122.82 458.144 1132.24 441.534 1139.13 438.371C1150.75 433.043 1166.02 454.216 1172.7 459.541C1193.03 475.745 1226.55 499.103 1265.42 488.981C1303.93 478.952 1312.91 444.71 1330.64 413.232C1344.14 389.258 1356.75 367.62 1379.56 353.361C1389.98 346.842 1407.93 340.76 1425.59 343.768C1436.22 345.577 1450.35 347.895 1462.68 345.753C1486.96 341.537 1503.02 333.851 1518.63 321.275C1534.96 308.118 1546.11 287.149 1557 268.35C1577.7 232.604 1595.37 192.767 1618.38 159.192C1633.68 136.867 1654.63 113.228 1680.08 101.636C1685.81 99.0265 1692.06 96.9645 1698.63 95.3515C1702.25 94.8005 1705.87 94.2495 1709.5 93.6975ZM1376.36 176.724C1370.78 179.418 1365.53 180.28 1360.69 183.34C1342.02 195.138 1324.89 212.313 1311.46 229.65C1297.94 247.089 1283.04 263.101 1271.17 282.574C1257.24 305.446 1243.72 342.511 1221.94 356.339C1206.79 365.959 1180.38 363.598 1162.79 357.993C1152.45 354.796 1142.11 351.598 1131.78 348.4C1105.64 338.903 1070.91 326.969 1040.34 340.792C1028.1 346.329 1018.86 356.467 1011.57 367.255C1004.99 376.983 986.2 409.562 996.861 426.133C1001.8 433.818 1013.07 429.541 1019.88 426.464C1032.51 420.758 1042.78 412.684 1054.09 405.626C1058.14 403.096 1064.52 398.793 1071.99 400.333C1079.89 401.96 1084.96 409.975 1095.65 407.941C1109.81 405.246 1123.34 395.22 1141.37 398.348C1147.87 399.34 1154.37 400.333 1160.87 401.325C1195.08 410.244 1246.34 427.458 1266.7 392.394C1271.14 384.737 1273.68 375.817 1277.25 367.254C1284.92 348.85 1292.28 329.036 1302.83 313.336C1310.51 301.894 1319.6 289.24 1330 280.588C1336.5 274.194 1343 267.797 1349.5 261.403C1358.26 250.138 1367.49 239.267 1375.72 227.333C1381.35 219.171 1407.91 176.111 1376.36 176.724ZM1711.42 182.347C1759.48 181.525 1797.48 224.169 1826.83 245.857C1836.28 252.836 1849.39 265.992 1862 268.68C1862 278.603 1862 288.528 1862 298.451C1854.27 296.743 1842.85 286.541 1836.74 281.912C1813.05 263.95 1768.21 217.49 1723.56 236.265C1694.24 248.598 1683.43 282.944 1670.81 312.675C1657.02 345.171 1638.68 376.075 1619.02 402.979C1603.93 423.633 1584.45 440.039 1559.55 450.611C1545.15 456.727 1528.87 458.938 1512.56 463.181C1490.79 468.842 1468.91 474.416 1449.89 483.028C1425.07 494.266 1406.4 514.751 1390.43 535.292C1385.13 542.099 1377.86 548.332 1371.24 553.816C1359.49 563.561 1348.3 574.901 1337.67 585.901C1318.32 605.931 1302.75 629.789 1296.11 662.974C1293.84 674.301 1291.11 693.21 1297.39 702.006C1303.91 711.138 1320.09 714.374 1327.44 703.66C1337.26 689.35 1333.27 659.444 1338.63 641.142C1346.9 612.911 1366.8 586.48 1386.59 570.025C1413.59 547.564 1439.64 522.212 1478.35 512.138C1502.85 505.76 1540.68 512.432 1563.39 503.207C1589.08 492.773 1606.52 472.126 1626.37 455.574C1637.03 446.691 1647.94 435.573 1656.43 424.48C1673.89 401.644 1688.93 378.379 1700.55 349.062C1709.68 326 1714.03 297.623 1733.8 285.552C1743.09 279.875 1761.05 281.758 1771.52 284.89C1799.21 293.177 1822.42 309.916 1842.5 326.569C1847 330.305 1858.06 346.057 1862 347.408C1862 396.249 1862 445.103 1862 493.944C1854.72 503.237 1840.84 553.932 1844.73 575.977C1848.93 599.756 1851.82 614.481 1862 631.218C1862 655.694 1862 680.176 1862 704.652C1853.95 702.047 1841.29 682.218 1836.74 674.551C1829.17 661.781 1823.79 647.699 1819.8 630.888C1809.44 587.246 1823.67 536.582 1832.27 500.891C1834.95 489.746 1835.56 478.217 1837.38 466.159C1837.28 459.654 1837.17 453.147 1837.06 446.643C1836.53 441.02 1836 435.396 1835.46 429.773C1831.06 408.771 1823.64 391.4 1812.76 377.179C1807.44 370.221 1797.96 361.444 1784.31 364.609C1764.81 369.13 1741.2 399 1733.16 416.211C1730.6 421.667 1727.1 430.536 1728.36 439.034C1731.73 461.826 1742.24 492.306 1737.95 518.422C1733.58 545.015 1723.78 563.952 1716.85 586.893C1712.53 601.193 1712.37 616.363 1709.82 633.534C1708.07 645.25 1710.41 662.962 1712.05 673.228C1716.53 701.205 1718.65 727.163 1724.2 752.946C1726.33 762.834 1727.8 772.61 1730.28 781.724C1730.92 784.48 1731.56 787.237 1732.2 789.994C1720.47 789.994 1708.75 789.994 1697.03 789.994C1695.43 783.159 1693.83 776.321 1692.23 769.485C1691.17 761.216 1690.1 752.945 1689.03 744.676C1685.52 727.257 1682 709.833 1678.48 692.413C1674.89 677.717 1673.12 663.204 1670.49 646.103C1670.28 640.48 1670.06 634.856 1669.85 629.233C1671.6 618.093 1672.18 607.807 1674.65 597.809C1680.05 575.897 1687.58 555.361 1693.83 534.3C1698.58 518.295 1702.55 481.355 1680.08 482.698C1658.35 483.997 1659.21 521.81 1655.46 543.231C1653.87 554.918 1652.27 566.608 1650.67 578.293C1641.66 621.035 1636.25 667.955 1647.15 713.253C1651.11 729.707 1645.26 751.819 1626.37 747.984C1598.6 742.348 1605.51 684.827 1600.15 654.373C1598.04 642.388 1596.81 630.021 1593.44 619.31C1585.6 594.374 1567.84 576.475 1549.96 561.755C1537.63 551.608 1521.61 537.464 1495.93 541.908C1457.91 548.486 1437.27 570.555 1417.6 595.825C1412.06 601.999 1406.51 608.175 1400.97 614.349C1389.01 630.1 1377.75 647.687 1372.2 669.921C1364.03 702.609 1372.85 748.518 1355.57 771.14C1335.55 797.364 1290.24 774.02 1277.56 757.578C1260.95 736.021 1251.06 709.164 1240.48 681.168C1236.49 670.621 1230.31 656.044 1231.53 641.474C1233.1 622.673 1237.97 610.351 1246.55 599.134C1261.94 579.028 1288.38 572.431 1310.5 559.11C1321.33 552.584 1330.82 545.441 1340.23 537.609C1354.3 525.891 1361.76 507.537 1371.24 490.968C1382.29 471.653 1396.78 455.135 1417.6 445.981C1430.54 440.289 1445.6 438.409 1460.76 434.734C1505.36 423.922 1548.65 418.996 1572.98 387.764C1593.96 360.838 1609.31 333.938 1623.49 299.445C1639.32 260.966 1653.21 215.701 1684.24 192.934C1688.69 189.668 1694.27 186.453 1699.9 184.664C1703.74 183.891 1707.58 183.119 1711.42 182.347ZM557.258 229.319C584.04 230.854 584.299 244.107 588.27 269.012C588.27 275.737 588.27 282.465 588.27 289.19C590.434 302.902 590.006 317.799 602.018 320.945C623.576 326.591 629.199 301.792 634.309 288.528C641.574 269.669 666.715 233.719 696.013 239.573C716.707 243.707 725.248 260.889 732.779 278.604C746.305 310.42 769.246 354.429 751.322 396.694C747.551 405.587 742.54 414.501 735.657 420.179C727.729 426.717 703.307 440.962 687.7 438.372C671.916 435.753 661.391 429.402 648.695 423.817C625.149 413.461 600.864 405.34 587.311 384.786C576.303 368.094 570.558 346.137 564.292 324.583C561.238 314.079 559.431 304.071 555.66 294.482C550.439 283.788 545.216 273.09 539.994 262.396C537.403 256.156 535.617 245.65 539.354 239.242C543.619 231.932 548.847 232.708 557.258 229.319ZM653.811 306.721C642.077 315.77 639.582 339.615 647.417 355.677C649.376 359.693 652.746 366.692 659.566 365.27C683.201 360.339 674.859 307.607 653.811 306.721ZM0.00193291 431.425C28.3501 435.26 61.3947 437.702 82.1673 450.28C109.986 467.123 124.111 494.984 140.355 523.714C161.351 560.847 168.263 609.627 211.651 623.61C224.949 627.896 246.045 629.284 259.288 623.61C277.15 615.956 288.428 595.066 293.497 573.994C297.82 556.026 290.71 539.395 279.11 534.631C269.284 530.595 263.355 539.142 259.928 544.224C251.487 556.738 233.066 589.372 212.291 571.348C204.875 564.913 210.3 545.395 213.249 538.27C221.757 517.727 245.037 488.937 267.92 483.691C284.137 479.973 296.068 488.137 304.367 494.938C331.272 516.985 338.076 580.819 317.795 616.335C306.631 635.883 290.325 652.143 266.96 659.006C235.421 668.27 175.986 649.581 157.619 636.844C142.654 626.466 141.049 609.371 133.961 590.534C130.124 580.391 126.287 570.245 122.451 560.103C114.634 539.38 108.406 515.933 97.8337 497.254C78.221 462.602 47.8314 446.067 0.00193291 441.021C0.00193291 437.821 0.00193291 434.623 0.00193291 431.425ZM1784.31 439.034C1813.22 438.84 1809.43 488.672 1804.45 514.122C1800.87 532.452 1797.12 550.495 1791.98 567.378C1786.42 585.662 1779.44 602.603 1775.36 622.949C1769.42 652.504 1774.15 695.165 1780.47 721.523C1784.63 738.87 1789.92 755.666 1797.74 769.486C1802.1 776.321 1806.47 783.159 1810.84 789.995C1798.7 789.995 1786.54 789.995 1774.4 789.995C1773.68 785.982 1770.45 782.616 1768.64 779.41C1765.13 771.472 1761.61 763.532 1758.09 755.594C1748.04 730.153 1746.23 699.769 1740.83 668.599C1739.04 658.288 1734.94 641.691 1736.67 629.897C1737.98 620.931 1738.27 612.613 1740.51 604.757C1747.93 578.692 1759.31 557.785 1765.44 530.001C1767.79 519.367 1769.86 504.091 1768 490.969C1766 476.809 1766.1 454.816 1772.16 446.313C1775.21 442.036 1779.19 441.367 1784.31 439.034ZM102.949 458.881C103.055 459.212 103.162 459.543 103.268 459.873C102.949 459.873 102.629 459.873 102.31 459.873C102.522 459.542 102.736 459.211 102.949 458.881ZM108.384 464.835C109.352 465.474 108.901 464.903 109.343 466.158C109.13 466.379 108.917 466.599 108.703 466.82C108.49 466.71 108.277 466.599 108.063 466.489C108.171 465.937 108.277 465.386 108.384 464.835ZM0.00193291 472.443C11.4243 474.727 22.1064 481.918 30.694 487.659C82.1586 522.061 89.7574 593.216 103.588 665.95C110.35 701.511 105.388 744.095 94.9564 770.477C92.3989 776.982 89.8405 783.488 87.2831 789.993C72.4711 789.993 57.6552 789.993 42.8432 789.993C42.7369 789.772 42.6296 789.552 42.5233 789.331C55.8816 770.673 66.6913 753.022 73.2153 726.483C79.9095 699.254 74.6506 664.243 68.0995 641.802C59.6501 612.858 51.2355 585.96 40.6047 560.099C34.419 545.052 29.6192 530.476 21.1022 518.089C14.8603 509.011 6.84011 505.021 0.000966456 497.58C0.00193298 489.203 0.00193291 480.822 0.00193291 472.443ZM795.123 533.638C795.656 533.748 796.189 533.859 796.722 533.969C796.828 534.41 796.936 534.851 797.042 535.292C796.936 535.402 796.828 535.513 796.722 535.623C796.189 535.623 795.656 535.623 795.123 535.623C794.91 535.292 794.697 534.961 794.484 534.631C794.697 534.299 794.91 533.968 795.123 533.638ZM0.00193291 540.584C2.81452 543.963 3.436 549.653 5.11776 554.146C8.45517 563.064 12.068 572.095 16.6271 579.946C28.3521 600.141 42.8036 618.632 49.8776 643.456C63.5414 691.41 38.6098 726.26 19.1855 751.621C13.6415 758.859 7.47511 766.588 0.32282 772.13C0.216502 772.13 0.109217 772.13 0.0028996 772.13C0.0028996 752.836 0.0028996 733.537 0.0028996 714.244C1.11924 712.105 3.79168 709.868 5.11872 707.628C10.6646 698.262 14.1828 688.271 16.3082 675.211C19.923 652.998 6.48442 636.253 0.0028996 623.94C0.00193307 596.158 0.00193291 568.367 0.00193291 540.584ZM652.532 557.454C684.258 557.997 664.432 620.09 637.505 611.701C625.681 608.018 616.38 588.51 625.036 573.661C628.697 567.381 637.062 560.889 644.539 558.777C647.203 558.336 649.868 557.895 652.532 557.454ZM1168.87 789.993C1169.54 772.824 1176.17 753.842 1172.06 734.421C1167.56 713.117 1160.99 693.997 1151.6 677.527C1143.53 663.373 1133.52 649.493 1128.58 632.54C1120.98 606.404 1141.13 578.653 1160.55 575.314C1165.42 574.477 1169.86 576.747 1172.7 578.291C1191.23 588.343 1178.46 610.981 1181.97 633.532C1183.62 644.117 1184.16 653.432 1187.41 661.979C1191.07 671.593 1196.67 680.747 1202.44 688.442C1214.84 704.985 1238.65 723.306 1230.57 755.921C1229.14 761.697 1226.56 767.308 1224.18 772.129C1222.66 775.187 1216.42 788.432 1214.59 789.991C1199.35 789.993 1184.1 789.993 1168.87 789.993ZM1532.38 789.993C1531.63 782.165 1530.88 774.335 1530.14 766.507C1525.12 740.709 1520.83 695.921 1496.57 691.42C1487.07 689.657 1480.9 696.184 1477.39 701.013C1465.82 716.92 1463.35 741.188 1457.88 763.53C1455.97 772.35 1454.05 781.173 1452.13 789.993C1437 789.883 1421.86 789.772 1406.73 789.662C1406.73 789.331 1406.73 789.001 1406.73 788.67C1421.62 772.642 1423.06 727.635 1428.15 700.021C1435.45 660.464 1451.99 615.038 1483.78 601.778C1501.99 594.186 1519.15 603.98 1529.5 612.363C1560.81 637.73 1557.54 692.35 1567.23 740.706C1569.43 751.72 1571.28 762.779 1574.9 772.461C1577.14 778.304 1579.38 784.149 1581.61 789.992C1565.2 789.993 1548.79 789.993 1532.38 789.993ZM674.912 789.993C656.69 789.993 638.463 789.993 620.241 789.993C623.867 774.835 640.398 758.396 636.546 737.398C633.455 720.546 615.934 720.161 608.732 707.959C606.082 703.471 605.648 694.825 606.813 688.443C610.582 667.808 616.425 652.641 635.906 648.418C642.532 646.982 651.763 647.672 656.368 650.403C672.838 660.169 684.262 696.984 689.298 719.537C690.819 726.346 692 736.103 690.577 744.014C688.502 755.551 685.312 765.828 681.305 775.438C679.397 780.016 675.549 784.455 674.912 789.993ZM1010.61 789.993C995.476 789.993 980.341 789.993 965.21 789.993C965.309 769.798 956.125 751.842 940.911 746.991C919.615 740.201 879.119 746.845 872.813 762.538C863.108 786.688 916.841 778.275 921.409 789.993C875.695 789.883 829.967 789.772 784.253 789.662C785.457 780.696 792.373 771.198 796.402 764.192C812.444 736.296 829.911 718.273 864.501 709.283C878.676 705.599 900.2 703.543 916.614 706.306C931.17 708.756 944.703 707.64 957.217 710.937C985.398 718.362 1005.19 734.538 1010.93 765.185C1012.46 773.349 1010.76 781.869 1010.61 789.993ZM1831.31 720.199C1843.82 720.032 1850.04 724.88 1856.24 731.114C1858.23 733.106 1859.22 735.878 1862 737.068C1862 753.385 1862 769.707 1862 786.024C1858.27 782.937 1854.54 779.849 1850.81 776.762C1840.66 769.334 1828.49 765.83 1822.99 753.607C1815.77 737.533 1817.26 727.036 1831.31 720.199ZM1510.96 789.993C1500.83 789.993 1490.71 789.993 1480.58 789.993C1480.72 778.023 1487.15 745.558 1499.77 748.314C1511.85 750.952 1511.22 775.324 1510.96 789.993ZM1638.84 777.092C1647.36 776.937 1655.38 782.731 1656.42 789.993C1645.45 789.993 1634.47 789.993 1623.49 789.993C1625.28 782.009 1631.83 779.992 1638.84 777.092Z" fill="#4E148C" fill-opacity="0.4"/>
</svg>
