<svg width="582" height="1078" viewBox="0 0 582 1078" fill="none" xmlns="http://www.w3.org/2000/svg">
<path fill-rule="evenodd" clip-rule="evenodd" d="M-1.10167 1145.99C-1.10167 1109.85 -1.10167 1073.69 -1.10167 1037.54C0.927305 1034.15 6.22753 1030.2 8.8978 1026.64C16.0492 1017.1 20.4145 1005.94 23.1826 992.732C26.302 977.845 25.0317 953.982 15.0876 946.932C11.7948 944.597 10.4877 941.43 3.89771 942.768C-2.15898 949.554 0.555915 965.283 2.23149 974.491C3.26145 980.151 1.94791 986.832 0.802788 991.344C0.16797 993.855 -0.466848 996.367 -1.10167 998.878C-1.10167 967.555 -1.10167 936.222 -1.10167 904.899C3.49897 905.724 7.64544 908.444 11.0405 910.451C28.3411 920.677 37.5863 934.661 42.2294 955.656C45.3804 969.903 41.1735 986.778 49.6097 996.103C58.9549 1006.43 87.6872 1002.8 103.892 999.672C109.147 998.656 117.069 996.59 123.653 997.491C147.424 1000.74 162.276 1008.44 178.65 1017.52C187.346 1022.34 206.154 1032.06 222.457 1029.81C228.15 1029.02 233.477 1028.84 238.408 1027.43C253.694 1023.06 265.833 1016 280.549 1011.17C291.361 1007.63 302.883 1007.3 316.499 1005.42C324.306 1004.34 334.295 1005.45 341.021 1006.41C359.273 1009.03 375.845 1010.27 393.161 1012.96C409.288 1015.46 426.927 1013.42 436.492 1007.6C465.693 989.851 443.424 948.773 435.779 925.916C434.025 920.674 431.539 913.093 432.922 906.287C436.386 889.231 447.189 882.815 457.206 871.789C463.237 864.718 469.269 857.645 475.301 850.574C489.444 833.605 517.163 826.617 541.963 818.455C561.881 811.582 581.804 804.708 601.722 797.835C611.696 794.43 633.973 785.504 648.623 787.525C660.076 789.105 669.304 790.517 678.622 793.671C691.794 798.826 704.971 803.982 718.143 809.136C725.81 811.642 733.97 811.833 742.904 813.498C753.315 815.438 761.226 818.453 768.617 822.618C770.233 823.528 774.954 825.685 775.997 826.781C775.997 856.255 775.997 885.736 775.997 915.209C775.759 915.474 775.521 915.738 775.283 916.002C774.331 913.623 773.379 911.244 772.426 908.865C770.919 903.974 769.411 899.083 767.903 894.193C761.549 873.074 760.89 850.29 743.143 838.876C725.407 827.47 698.084 825.152 671.48 821.031C643.684 816.726 581.961 815.583 574.343 834.117C570.855 842.605 586.217 846.804 595.771 844.626C607.151 842.031 617.617 837.831 629.816 835.505C654.242 830.85 684.388 833.53 701.717 842.048C726.13 854.049 736.115 873.596 745.285 898.357C748.825 907.914 751.304 917.341 755.761 926.115C759.308 933.096 763.629 939.867 768.856 945.545C770.79 947.647 774.319 949.357 775.998 951.493C775.998 965.701 775.998 979.914 775.998 994.121C771.828 993.247 767.066 988.377 764.57 985.794C760.591 981.675 755.966 977.881 752.189 973.501C747.626 968.208 744.705 961.717 741.476 955.458C731.825 936.756 723.291 915.973 713.62 897.564C702.742 876.856 698.015 862.877 670.052 855.927C640.082 848.48 610.054 860.419 586.009 864.651C570.539 867.374 554.603 864.03 541.964 861.677C534.952 860.372 504.935 857.888 507.918 867.03C510.539 875.063 538.507 874.658 550.296 876.349C590.105 882.06 631.841 864.266 662.671 882.495C667.461 885.328 671.717 888.816 673.384 894.193C678.504 910.708 656.651 906.07 647.434 902.916C636.621 899.217 627.498 894.521 614.34 892.606C603.386 891.013 589.832 895.73 579.581 897.167C571.69 898.272 562.879 896.569 556.487 895.581C547.123 894.589 537.757 893.598 528.394 892.606C509.583 889.84 484.697 890.785 472.92 897.365C456.663 906.448 463.337 923.016 469.111 936.622C481.167 965.03 488.404 1004.71 458.397 1022.08C438.479 1033.6 402.553 1036.68 370.069 1031.79C359.833 1030.87 349.593 1029.94 339.357 1029.02C334.436 1028.75 329.516 1028.49 324.595 1028.22C319.755 1028.55 314.913 1028.88 310.072 1029.21C297.169 1031.48 286.625 1035.53 277.455 1040.91C267.759 1046.6 252.331 1058.96 233.887 1056.38C215.87 1053.85 203.085 1049.32 190.318 1042.7C181.649 1038.2 173.46 1032.76 163.415 1029.41C154.848 1026.56 145.066 1026.53 134.369 1025.05C130.877 1024.98 127.384 1024.92 123.893 1024.85C116.484 1023.86 107.904 1025.33 99.8474 1024.26C86.1484 1022.43 62.1412 1025.04 51.7552 1027.63C37.3819 1031.21 27.4867 1038.84 23.8995 1051.42C22.4888 1056.36 22.9466 1062.61 22.9473 1068.47C22.9473 1077.92 22.9473 1087.37 22.9473 1096.82C22.9473 1100.79 22.9473 1104.75 22.9473 1108.72C20.7146 1119.22 15.8124 1127.75 9.85291 1135.09C7.09051 1138.49 3.39892 1144.21 -1.10167 1145.99ZM-1.10167 692.553C-1.10167 686.076 -1.10167 679.599 -1.10167 673.122C21.7863 672.095 40.2061 653.694 34.8483 630.296C32.4919 620.004 27.5508 612.458 24.1349 603.53C21.9713 597.876 20.9737 591.884 19.6113 585.488C17.136 573.866 22.5126 561.656 20.0877 550.196C17.8076 539.419 9.75358 532.066 -1.10167 528.585C-1.10167 517.483 -1.10167 506.378 -1.10167 495.276C0.802788 497.126 2.70796 498.977 4.61242 500.827C8.36662 504.72 13.5769 508.567 18.4208 511.534C32.5423 520.183 50.5705 524.484 71.2748 527.792C89.5053 530.704 115.476 528.317 120.557 542.067C122.139 546.345 121.002 552.075 119.367 555.35C115.765 562.565 109.092 566.7 98.654 568.238C94.5349 568.844 89.406 568.554 85.5597 568.039C68.4879 565.756 54.193 568.078 49.6097 578.151C47.1431 583.572 48.8877 591.55 50.5619 596.392C54.5068 607.803 61.0717 616.865 63.8945 629.106C68.5282 649.2 50.7015 662.238 56.7517 682.639C59.5811 692.177 66.2171 698.759 72.4653 705.439C83.9611 717.731 95.5829 728.677 114.606 734.783C125.819 738.383 138.895 739.214 151.508 741.525C170.053 744.922 187.749 748.598 201.981 755.602C219.751 764.346 233.176 775.99 240.55 793.471C242.293 797.602 245.671 811.8 253.169 809.333C257.212 807.717 258.484 798.834 257.454 793.274C254.671 778.241 249.843 769.451 241.027 759.964C233.408 751.766 222.788 745.11 212.695 738.948C199.719 731.024 187.277 722.827 171.031 717.535C160.323 714.046 147.968 712.921 136.272 710.199C114.192 705.06 99.6372 694.611 92.9407 676.691C88.2141 664.043 88.3703 649.898 85.5604 635.055C84.0547 627.102 82.9211 616.209 84.8464 607.892C86.5579 600.498 90.1394 593.781 96.0363 589.85C103.171 585.093 112.138 582.77 122.94 580.928C129.476 579.814 136.037 579.847 141.51 577.954C153.641 573.759 160.509 558.211 157.462 542.464C156.504 537.515 155.31 532.97 152.7 529.378C146.178 520.401 133.355 518.605 119.368 515.698C101.178 511.916 82.6209 508.912 66.2762 503.405C55.449 499.757 44.8514 495.509 36.2778 489.923C20.7765 479.822 10.6223 463.085 -1.10095 449.873C-1.10095 436.326 -1.10095 422.775 -1.10095 409.227C6.21458 410.368 12.4469 416.147 16.9935 419.934C23.6102 425.445 29.6338 432.162 33.6593 439.76C41.2361 454.061 47.1611 469.995 61.0385 479.017C74.852 487.999 92.1756 492.897 111.988 497.06C143.778 503.74 175.822 501.167 181.746 529.972C183.381 537.919 178.681 547.984 176.509 553.764C169.057 573.589 163.49 595.99 146.034 607.495C129.737 618.237 114.815 619.122 109.608 640.011C108.549 644.257 107.974 650.927 109.131 655.674C109.945 659.015 111.009 662.609 112.703 665.389C125.881 687.018 153.785 682.637 180.318 692.156C200.136 699.265 213.204 711.499 228.887 721.896C251.038 736.582 273.122 749.308 280.789 776.222C288.794 804.328 272.867 826.972 261.266 843.435C255.861 851.106 251.803 859.024 246.267 866.236C240.659 873.543 232.716 878.501 225.554 884.477C223.667 886.051 219.981 889.382 221.983 892.21C228.564 893.723 234.871 890.339 238.887 888.244C252.581 881.102 259.105 870.121 266.743 857.909C281.788 833.854 320.96 816.444 310.311 776.222C308.566 770.804 306.819 765.383 305.074 759.964C296.548 741.665 285.361 728.295 266.743 718.526C252.308 710.953 234.651 706.152 221.269 697.708C205.573 687.802 198.079 671.371 180.557 662.813C173.576 659.403 164.541 658.486 155.082 657.063C148.123 656.016 141.971 656.367 136.988 653.89C126.811 648.832 129.808 637.174 137.702 632.081C144.893 627.441 158.908 622.697 170.557 626.727C177.761 629.22 183.058 634.478 189.841 637.831C199.06 642.387 207.668 647.257 214.125 654.088C221.205 661.578 228.949 672.209 237.696 678.079C243.652 682.076 248.966 686.644 255.314 690.372C264.36 695.262 273.409 700.154 282.455 705.044C293.882 712.095 302.531 722.176 314.834 728.241C318.994 730.292 327.106 732.8 330.786 728.638C333.767 725.267 332.929 717.114 331.262 713.173C326.41 701.705 315.582 695.069 303.407 689.778C270.987 675.687 246.721 658.959 234.125 628.315C229.522 617.116 225.81 599.682 229.602 585.29C233.454 570.668 243.235 559.36 258.409 554.162C292.157 542.604 341.46 558.227 361.023 571.015C370.785 577.397 375.289 588.703 384.593 594.808C389.022 597.714 395.432 598.366 396.735 592.429C398.811 582.975 388.327 570.322 384.117 565.068C367.149 543.892 351.509 540.805 316.74 534.931C309.201 534.27 301.661 533.609 294.123 532.948C274.967 530.256 250.644 531.696 237.935 538.103C220.995 546.644 210.9 562.333 204.604 579.74C202.699 586.876 200.794 594.016 198.89 601.153C196.922 605.11 191.022 609.17 185.081 605.515C179.061 601.81 177.857 591.809 179.844 583.308C183.682 566.887 187.68 552.726 196.51 540.681C203.61 530.993 213.455 522.383 226.508 517.682C240.36 512.692 257.53 512.167 268.649 505.191C278.869 498.779 277.976 486.68 281.267 474.261C284.045 465.67 286.823 457.077 289.6 448.486C293.295 438.664 299.162 425.681 296.028 412.005C289.759 384.646 262.889 377.95 246.269 359.662C229.209 340.89 219.192 316.135 201.51 297.802C192.909 288.884 175.806 286.12 165.083 278.967C158.803 274.777 154.527 268.448 149.846 262.907C143.498 255.77 137.148 248.631 130.799 241.494C125.319 235.679 118.197 229.855 111.277 225.236C107.468 222.394 103.658 219.552 99.8488 216.71C96.2882 213.024 92.6859 209.074 90.8016 204.021C89.0116 199.221 88.3199 192.373 89.6111 186.772C93.4114 170.286 99.4681 164.428 116.038 158.816C121.672 157.56 127.308 156.304 132.942 155.049C181.088 146.546 206.849 173.699 240.316 181.617C259.93 186.256 277.386 176.913 297.694 180.031C316.432 182.907 329.941 188.824 344.834 194.306C372.227 204.388 396.742 218.643 413.163 237.924C418.705 244.432 422.392 251.083 424.353 260.725C425.734 267.512 422.502 277.291 421.258 283.328C418.367 297.359 425.283 308.215 431.972 315.249C446.701 330.737 479.115 339.01 502.444 347.567C515.207 352.249 530.005 357.557 535.537 368.186C539.35 375.513 538.731 386.269 535.061 393.367C527.754 407.494 515.906 415.622 510.776 432.822C509.692 436.458 508.044 442.126 509.348 446.9C511.066 453.193 515.961 457.614 519.585 462.364C531.537 478.034 545.43 490.841 570.297 495.674C590.917 499.681 610.082 494.635 624.818 504.199C633.521 509.849 637.795 520.153 640.055 531.164C641.03 535.916 640.12 543.237 636.721 545.043C632.644 547.211 624.158 544.705 620.77 543.853C610.979 541.395 594.056 535.778 581.487 538.302C574.116 539.782 568.987 544.11 563.155 547.025C554.371 551.416 544.175 554.992 533.394 557.533C479.054 570.342 432.417 546.581 417.925 515.897C408.829 496.637 420.311 473.474 424.83 456.218C426.563 449.599 427.589 435.01 421.735 432.227C413.16 428.152 398.46 441.997 395.546 445.908C386.915 457.493 388.406 478.262 378.642 488.733C373.214 494.554 365.305 495.378 354.358 496.862C349.341 497.543 343.14 497.257 339.121 495.871C320.971 489.612 329.075 472.115 337.454 462.76C351.99 446.532 374.315 436.948 386.975 418.943C391.769 412.124 395.737 400.112 391.975 389.797C378.893 353.94 318.347 341.978 286.028 320.404C274.398 312.639 258.757 294.254 265.791 275.198C270.532 262.355 286.619 251.275 306.979 257.949C326.955 264.497 339.364 276.944 361.738 282.138C376.413 285.544 400.758 287.154 407.212 276.586C408.067 275.187 409.403 272.666 408.64 270.043C405.522 259.317 370.939 258.075 357.453 254.579C335.782 248.96 321.357 237.761 301.266 231.183C289.582 227.357 274.283 228.568 265.078 233.364C258.744 236.665 252.014 241.812 247.46 246.648C241.635 252.834 236.709 259.776 233.652 268.259C227.946 284.088 234.014 301.039 240.08 312.473C250.69 332.474 267.053 346.011 288.886 356.687C307.773 365.922 335.962 373.823 348.169 388.212C358.393 400.265 353.842 414.422 346.026 425.289C332.83 443.634 295.929 464.652 312.694 496.269C317.49 505.313 326.618 510.777 339.835 512.924C352.917 515.049 369.073 511.981 378.404 516.691C393.943 524.533 398.013 543.976 408.403 556.146C424.62 575.142 451 584.497 484.351 589.456C511.967 593.561 542.054 588.034 562.918 582.516C569.705 580.721 584.997 572.306 593.392 575.974C604.123 580.661 607.592 591.489 612.2 601.352C619.391 616.738 627.285 631.307 631.247 648.738C633.469 658.514 627.716 672.95 631.247 680.659C633.711 686.037 639.559 688.636 646.246 690.572C649.539 691.526 654.48 692.844 659.102 691.96C667.142 690.422 672.972 682.616 670.054 673.917C667.286 665.67 663.353 657.861 660.768 648.936C658.169 639.957 659.848 630.437 657.912 620.385C656.331 612.179 656.791 595.977 658.388 587.868C661.012 574.542 662.188 562.958 664.816 549.801C664.895 545.902 664.975 542.002 665.054 538.103C666.682 529.779 665.991 521.615 669.102 514.906C678.332 494.999 695.354 490.644 716.003 480.605C733.697 472.003 747.781 462.091 775.999 462.166C775.999 475.713 775.999 489.264 775.999 502.811C768.72 502.725 760.59 501.776 753.382 502.811C730.718 506.068 712.636 513.449 702.432 527C684.357 551.006 683.371 609.594 695.052 640.608C698.3 649.23 703.296 656.853 709.337 663.211C718.656 673.017 732.602 677.909 747.906 682.839C756.457 685.594 764.617 688.094 772.429 690.968C773.619 691.299 774.81 691.629 776 691.96C776 698.898 776 705.839 776 712.778C775.762 712.778 775.524 712.778 775.286 712.778C763.286 708.755 746.069 703.044 728.384 705.839C709.174 708.874 696.148 715.929 678.387 719.718C662.518 723.102 637.865 718.308 625.533 714.364C616.279 711.405 604.858 707.128 601.01 699.693C597.645 693.189 599.064 683.724 597.439 675.9C593.663 657.717 591.117 643.107 576.726 634.066C555.812 620.927 516.15 609.295 478.875 617.015C462.656 620.374 448.979 624.447 431.735 627.523C425.319 628.668 416.116 629.682 408.641 628.515C389.253 625.488 375.446 617.365 365.31 606.705C361.585 602.788 357.175 598.668 352.454 595.602C341.341 588.387 328.564 583.875 314.123 579.146C288.893 570.883 264.244 576.382 255.555 594.016C248.609 608.113 256.776 624.458 264.126 632.877C276.513 647.064 293.79 658.287 312.218 667.376C324.4 673.384 339.92 675.586 348.406 684.625C366.377 703.765 357.249 725.729 350.549 747.873C349.597 753.49 348.644 759.108 347.692 764.726C347.613 768.228 347.533 771.731 347.454 775.234C347.454 779.992 347.454 784.751 347.454 789.509C347.375 792.087 347.295 794.665 347.216 797.242C347.216 800.084 347.216 802.926 347.216 805.768C346.096 811.452 346.05 817.122 344.359 822.224C340.351 834.311 332.067 854.141 320.789 859.895C315.224 862.734 306.931 862.867 300.076 864.654C292.702 866.576 286.409 869.744 280.791 873.18C260.497 885.591 246.321 904.31 219.367 911.049C198.756 916.202 167.36 908.249 147.704 914.618C134.187 918.998 128.268 926.389 122.943 937.617C121.143 941.414 118.947 948.181 122.467 952.09C127.938 958.168 144.288 958.29 153.179 961.409C166.937 966.235 179.22 972.015 195.557 974.891C223.928 979.886 255.317 970.751 276.743 965.176C284.757 963.656 292.775 962.136 300.789 960.616C321.183 956.884 346.443 959.009 364.356 952.883C388.935 944.48 373.86 919.858 370.309 902.126C368.275 891.976 375.007 880.004 379.356 874.567C389.092 862.395 406.435 857.321 420.306 848.594C429.552 842.776 436.115 834.377 445.066 828.37C454.334 822.152 463.374 816.542 474.112 811.319C483.238 807.817 492.366 804.314 501.492 800.811C515.781 795.298 529.432 786.835 537.442 776.027C543.007 768.519 545.213 759.079 548.393 749.459C550.14 744.176 555.351 731.297 554.107 724.874C553.165 720.008 553.277 715.201 551.726 710.995C543.75 689.357 528.492 670.019 499.586 665.591C491.398 664.337 480.334 665.332 473.159 666.384C467.208 666.979 461.255 667.574 455.303 668.169C439.034 670.838 415.334 673.183 397.687 669.755C377.46 665.825 362.835 658.019 348.88 648.937C342.77 644.113 336.658 639.287 330.548 634.463C324.74 630.637 318.293 626.637 310.074 624.946C295.879 622.027 288.604 628.979 283.17 616.42C282.262 614.321 281.106 611.11 281.98 608.093C286.523 592.413 310.697 601.77 321.978 606.11C341.992 613.811 353.982 627.565 371.498 637.04C381.441 642.418 393.165 645.033 406.973 647.35C426.691 650.659 454.989 647.986 472.921 644.971C481.338 643.556 492.523 640.899 503.158 642.394C523.899 645.309 534.258 649.097 547.441 657.859C549.663 659.445 551.885 661.031 554.107 662.617C562.527 671.41 568.804 680.764 572.678 693.547C577.398 709.126 572.001 731.976 568.392 746.286C565.448 757.96 565.008 769.452 558.869 778.207C542.583 801.434 510.051 810.273 482.921 824.404C466.235 833.095 453.797 845.575 441.733 858.11C433.533 866.63 420.582 871.506 412.449 880.117C398.654 894.725 410.042 918.992 415.544 933.65C416.973 939.135 418.402 944.621 419.83 950.106C423.241 964.98 419.189 983.808 409.592 990.157C402.159 995.073 388.205 995.178 376.499 993.131C357.031 989.726 330.189 984.158 306.027 987.579C298.171 988.571 290.312 989.562 282.456 990.553C272.14 993.197 261.822 995.841 251.506 998.484C242.63 1000.8 224.04 1006.12 211.746 1004.43C204.564 1003.45 197.65 1003.42 191.271 1001.85C172.387 997.22 155.583 991.084 136.751 986.39C129.054 985.068 121.354 983.746 113.657 982.424C103.348 980.798 91.0636 982.511 84.1353 978.261C66.4885 967.436 80.6063 930.075 68.8982 914.22C62.5896 905.677 50.3085 903.741 38.6616 899.548C28.9752 896.062 20.8507 890.182 12.4728 885.471C7.94989 882.96 3.42555 880.448 -1.09807 877.937C-1.0189 866.24 -0.939003 854.54 -0.859831 842.843C0.251461 843.769 1.36203 844.693 2.47332 845.619C5.0126 847.535 7.55259 849.452 10.0919 851.369C16.6459 855.656 23.5994 859.524 33.424 861.084C51.8553 864.011 65.406 852.565 80.5639 857.515C93.9843 861.898 104.033 869.92 113.419 877.738C119.872 883.113 126.097 888.978 135.084 892.212C144.298 895.527 160.141 895.004 170.558 892.807C191.542 888.381 215.286 872.222 222.698 856.524C228.432 844.379 223.739 827.158 218.889 817.267C205.815 790.603 181.338 771.442 146.512 762.742C123.593 757.017 96.168 758.328 79.1352 748.269C49.3045 730.65 53.027 692.499 -1.10167 692.553ZM-1.10167 820.436C-1.02249 808.475 -0.942602 796.51 -0.863429 784.549C-0.54602 784.814 -0.228611 785.078 0.0887978 785.342C3.36221 786.637 5.93675 789.816 8.42133 791.885C17.1137 799.124 25.7601 808.811 37.705 813.1C49.9839 817.509 64.4588 814.142 78.8933 816.471C94.3499 818.965 105.769 823.996 118.415 828.565C126.46 831.472 154.545 843.091 160.555 831.341C165.35 821.966 155.733 812.866 149.604 809.531C138.026 803.231 121.125 805.334 103.892 802.988C83.6286 800.231 63.0589 799.572 48.6574 792.084C31.8448 783.341 26.6036 767.773 16.0406 753.818C13.2055 750.072 9.24688 745.984 5.08889 743.31C3.02537 742.186 0.961853 741.062 -1.10095 739.939C-1.10095 731.943 -1.10095 723.944 -1.10095 715.949C19.6451 721.182 28.701 728.162 39.3727 741.525C47.5929 751.818 52.4275 763.529 64.1335 770.869C73.5665 776.784 85.8936 778.591 99.3695 781.377C131.714 788.064 164.836 789.442 182.222 808.342C188.61 815.287 199.101 827.152 193.174 839.668C190.72 844.849 186.6 850.036 182.222 853.745C173.859 860.828 154.627 865.649 138.891 860.487C119.235 854.039 105.965 841.62 84.6081 836.298C70.1585 832.697 50.2913 837.6 34.6108 834.712C24.7452 832.894 16.5019 829.257 8.8978 825.393C5.56464 823.741 2.23149 822.088 -1.10167 820.436ZM-1.10167 652.304C-1.10167 634.461 -1.10167 616.614 -1.10167 598.771C-0.942602 598.837 -0.784257 598.904 -0.625193 598.97C0.644444 602.142 1.91408 605.315 3.18444 608.487C8.27378 619.294 12.7744 632.053 6.04112 643.977C4.36698 646.942 2.20126 650.709 -1.10167 652.304ZM-1.10167 122.332C-1.10167 114.072 -1.10167 105.809 -1.10167 97.5485C6.0404 98.6718 13.1839 99.7955 20.326 100.919C38.3701 104.292 55.4274 107.464 72.2278 111.031C80.5358 112.794 95.2518 114.174 97.9408 107.462C100.71 100.55 88.2234 94.6965 83.4177 92.7899C67.9704 86.6599 47.2079 85.7164 31.0401 80.4969C23.978 77.9856 16.9136 75.474 9.85075 72.9626C6.2009 71.3766 2.5489 69.79 -1.10095 68.2041C-1.02177 52.4102 -0.941882 36.6115 -0.86271 20.818C-0.783537 20.95 -0.703645 21.0824 -0.624473 21.2142C1.75646 25.0474 4.13738 28.8811 6.51831 32.7142C13.9353 43.2784 21.8518 52.5804 35.802 57.6962C49.858 62.8503 66.9311 64.3153 83.4184 67.8079C112.265 73.9193 147.947 86.6101 157.938 107.858C169.181 131.771 119.936 131.617 101.512 136.21C72.1162 143.54 43.4752 170.667 52.7053 205.802C58.1322 226.458 69.5424 235.431 82.7037 249.025C86.3535 252.131 90.0055 255.238 93.6554 258.344C104.996 270.048 119.097 282.12 134.844 290.067C151.916 298.683 172.654 303.365 187.936 313.264C205.686 324.762 213.801 344.086 225.791 360.452C231.06 367.644 236.844 374.518 242.933 381.072C249.353 387.984 256.849 394.274 261.027 403.08C271.375 424.892 257.233 445.842 249.599 461.767C245.976 469.326 243.58 477.289 238.886 483.974C230.159 496.399 213.666 509.065 188.174 503.999C176.351 500.562 164.524 497.125 152.7 493.689C140.718 491.838 128.732 489.987 116.75 488.137C95.2338 482.699 75.1211 470.459 67.7056 453.638C64.4278 446.204 63.585 433.576 70.5623 429.053C80.2443 422.778 95.5944 425.521 98.418 413.192C99.0816 410.292 98.6692 406.372 97.704 404.071C96.2753 401.891 94.8466 399.709 93.4186 397.528C88.2522 391.82 65.121 381.317 54.1354 388.408C48.3026 392.173 45.4322 406.602 34.3747 403.675C25.1612 401.236 18.0847 394.184 10.0904 390.192C8.97193 389.634 -1.0153 386.118 -1.09951 386.029C-1.09951 372.02 -1.09951 358.006 -1.09951 343.996C6.30743 345.464 14.0253 344.485 20.8039 345.781C70.7667 355.333 124.524 365.483 133.892 408.83C138.407 429.722 100.263 442.204 117.703 463.354C126.032 473.454 163.904 481.458 185.794 476.44C199.533 473.29 209.946 466.546 216.506 457.406C224.254 446.613 228.835 428.427 223.887 412.201C221.193 403.368 216.931 395.012 213.173 387.02C202.353 364.01 192.946 342.527 169.128 330.514C156.913 324.353 141.271 321.199 127.702 316.239C115.516 311.784 104.603 303.418 96.7517 295.223C80.7992 278.571 66.5425 256.221 46.0404 243.673C37.962 238.729 25.416 234.006 12.2331 238.716C6.52047 240.757 3.24633 244.363 -1.09951 247.439C-1.09951 241.624 -1.09951 235.807 -1.09951 229.992C6.23473 228.132 15.6678 221.831 18.1847 215.914C19.6487 212.473 17.6132 207.209 16.756 204.018C14.1786 194.417 8.67252 180.191 -1.10023 177.252C-1.10023 166.018 -1.10023 154.78 -1.10023 143.546C12.0791 145.932 30.1894 173.278 43.4213 155.641C61.8202 131.114 26.2409 122.188 -1.10167 122.332ZM-1.10167 316.834C-1.10167 309.565 -1.10167 302.293 -1.10167 295.024C-1.10167 293.034 -1.86316 288.469 -0.625193 287.292C9.54629 276.423 41.6564 279.836 53.181 286.895C69.1609 296.682 79.4065 312.06 95.0834 322.187C102.21 326.79 110.228 331.491 118.891 334.678C130.876 339.087 143.629 342.943 154.365 348.556C171.469 357.499 183.19 370.89 191.268 387.417C198.084 401.365 200.332 424.018 189.363 435.795C185.083 440.39 171.356 445.392 167.698 436.786C164.949 430.318 172.456 421.552 170.793 412.795C168.29 399.621 165.334 390.168 157.937 381.469C143.61 364.622 112.541 354.66 91.2745 343.005C81.5931 337.454 71.9096 331.901 62.2283 326.35C55.2021 322.039 47.8247 317.067 38.8962 314.454C26.2394 310.751 9.69096 313.662 -1.10167 316.834ZM9.85003 204.614C10.0091 204.548 10.1674 204.482 10.3265 204.416C10.1674 204.482 10.0091 204.547 9.85003 204.614ZM20.5635 0.793579C20.5635 0.529297 20.5635 0.265015 20.5635 0.000610352C32.8633 0.000610352 45.1666 0.000610352 57.4657 0.000610352C58.41 4.28931 61.7691 8.02527 64.3703 11.1038C77.3833 26.5033 94.2693 30.6229 121.51 34.3014C128.224 35.2083 137.022 34.5123 142.937 33.7067C152.406 32.4174 163.197 34.1317 170.078 35.8879C203.735 44.4766 232.735 69.3639 249.121 92.791C256.542 103.4 273.903 136.684 260.311 151.28C248.173 164.315 219.01 154.238 210.79 145.332C199.867 133.498 196.789 116.818 189.363 101.714C181.953 86.6432 170.851 73.3827 156.269 64.2408C131.769 48.8802 88.7114 49.8676 58.6562 38.8627C43.9215 33.4677 34.4849 21.4084 26.5151 10.3119C24.5322 7.13879 22.5478 3.96558 20.5635 0.793579ZM23.1826 1134.49C23.3043 1116.36 63.4634 1119.75 68.8939 1104.75C70.7587 1099.6 63.4879 1095.17 59.3709 1094.24C54.4305 1093.14 51.6588 1093.94 48.4192 1091.87C39.8787 1086.4 41.7953 1067.6 46.0383 1058.95C54.4298 1041.84 93.1329 1031.95 125.796 1036.15C133.876 1037.19 141.216 1036.78 148.651 1038.13C159.95 1040.19 171.45 1045.38 177.221 1052.21C187.849 1064.79 174.233 1082.76 166.031 1090.28C142.3 1112.03 107.951 1123.61 69.8468 1133.5C60.4592 1135.94 50.7433 1137.74 40.5631 1139.85C37.7403 1140.43 32.3652 1142.18 29.6114 1141.63C26.1358 1140.25 25.1101 1137.22 23.1826 1134.49ZM39.8484 1154.72C43.6048 1151.8 56.2529 1149.6 61.7518 1147.98C71.1179 1145.21 81.4787 1142.96 91.7502 1140.84C96.3523 1140.18 100.957 1139.52 105.559 1138.86C115.744 1136.49 125.231 1133.09 134.367 1129.73C150.952 1123.64 171.547 1111.23 182.221 1100.19C188.35 1093.85 194.164 1086.06 202.696 1081.75C215.777 1075.15 242.097 1077.87 258.407 1074.42C290.878 1067.54 315.194 1054.93 348.401 1048.84C388.019 1041.58 438.411 1057.39 473.393 1044.68C492.575 1037.71 499.924 1022.49 503.867 1002.64C503.947 998.746 504.027 994.846 504.106 990.947C504.027 982.356 503.947 973.763 503.867 965.172C503.849 955.08 501.248 942.328 505.058 934.044C517.846 906.236 564.68 920.538 601.719 919.174C619.563 918.516 640.076 915.184 658.144 918.182C690.562 923.563 710.571 938.273 721.473 961.603C727.51 974.521 727.787 991.152 733.854 1004.03C739.436 1015.89 749.081 1024 760.995 1030.6C765.281 1032.98 770.495 1036.72 775.994 1037.74C775.994 1047.52 775.994 1057.3 775.994 1067.08C771.078 1066.23 766.006 1062.41 761.947 1060.34C753.724 1056.16 744.209 1052.36 734.33 1049.83C723.956 1047.18 714.1 1047.8 710.045 1039.92C704.116 1028.4 710.453 1009.28 707.664 994.912C705.899 985.824 705.273 977.734 701.712 970.525C693.04 952.971 673.218 940.146 648.381 936.027C638.142 934.328 620.269 934.6 609.574 936.027C598.941 935.828 588.304 935.63 577.671 935.432C562.045 937.5 554.634 938.174 544.816 944.751C535.377 951.073 528.418 968.956 531.483 984.801C531.483 987.18 531.483 989.56 531.483 991.939C532.593 997.856 532.385 1006.43 531.245 1012.16C526.878 1034.14 518.195 1049.71 499.342 1059.35C489.47 1064.4 477.638 1067.22 464.106 1069.26C457.203 1069.66 450.297 1070.06 443.393 1070.45C436.438 1071.37 426.237 1071.61 418.871 1070.65C412.999 1070.39 407.125 1070.12 401.253 1069.86C391.372 1068.58 373.773 1068.24 363.636 1069.66C346.453 1072.07 332.887 1075.2 319.353 1080.17C305.141 1085.39 292.928 1092.92 276.736 1096.63C259.815 1100.49 235.503 1096.72 218.883 1100.19C203.103 1103.49 186.908 1110.54 175.552 1117.84C166.102 1123.91 158.128 1131.66 148.887 1137.86C144.516 1140.8 130.878 1150.81 128.888 1154.72C99.2126 1154.72 69.5258 1154.72 39.8484 1154.72ZM312.451 0.000610352C312.365 6.63232 309.82 13.1884 307.213 18.2412C297.277 37.5062 263.006 71.0068 229.123 54.3263C216.637 48.1796 202.471 34.3643 193.41 24.9825C188.649 20.052 182.274 14.4873 174.84 11.8967C161.029 7.08484 145.763 11.7595 132.462 13.6812C121.96 15.1982 112.71 10.704 107.464 7.33655C104.514 5.44312 100.881 3.21582 99.607 0.000610352C134.364 0.000610352 169.13 0.000610352 203.886 0.000610352C205.997 4.49548 218.734 9.21448 223.885 11.8967C232.403 16.3323 240.242 21.698 251.026 24.1896C272.861 29.2335 286.719 13.3496 290.072 0.000610352C297.531 0.000610352 304.992 0.000610352 312.451 0.000610352ZM156.032 213.139C160.127 221.382 162.139 227.343 170.793 231.578C181.914 237.019 197.352 231.609 206.981 228.802C222.043 224.413 238.567 223.336 255.55 220.079C265.725 218.127 275.981 212.629 289.834 214.527C308.043 217.023 320.316 225.341 333.879 231.975C345.615 237.715 358.478 242.79 372.924 246.052C378.042 247.208 386.999 248.401 389.352 244.466C392.029 240.355 386.241 236.125 384.114 234.354C375.122 226.871 363.886 222.258 352.45 216.708C338.099 209.747 321.27 204.969 303.167 201.244C298.088 200.715 293.008 200.186 287.93 199.658C268.852 197.025 254.363 205.132 236.266 202.433C227.181 201.079 218.963 199.544 211.506 196.882C202.133 193.535 193.608 189.05 182.223 187.365C164.776 184.783 155.878 199.982 156.032 213.139ZM496.726 1154.72C481.252 1154.72 465.774 1154.72 450.3 1154.72C450.112 1149.21 447.846 1143.66 445.777 1139.45C436.309 1120.19 414.513 1107.96 379.59 1114.47C366.634 1116.88 355.376 1121.32 344.116 1125.17C329.195 1130.28 314.779 1134.04 296.737 1136.67C279.155 1139.24 259.893 1134.05 248.407 1130.13C240.609 1127.47 229.279 1122.93 218.17 1125.77C206.102 1128.85 192.891 1139.11 185.791 1146.59C183.49 1149.3 181.188 1152.01 178.887 1154.72C173.094 1154.65 167.299 1154.58 161.507 1154.52C161.745 1154.32 161.983 1154.12 162.221 1153.92C166.823 1149.63 171.427 1145.33 176.029 1141.04C186.059 1130.48 196.949 1117.7 212.931 1112.29C217.973 1110.58 223.335 1110.18 229.597 1109.31C235.72 1108.47 242.905 1110.15 247.692 1111.1C261.455 1113.82 278.513 1117.66 294.832 1114.47C308.024 1111.88 318.261 1107.39 329.354 1103.36C342.799 1098.48 356.574 1094.41 372.446 1091.47C390.429 1088.13 414.84 1088.9 431.728 1092.46C470.665 1100.66 495.463 1115.27 496.726 1154.72ZM201.982 1154.72C204.977 1146.81 215.555 1135.62 230.313 1137.67C242.625 1139.37 252.314 1143.62 262.93 1146.79C272.203 1149.55 281.336 1150.79 292.452 1152.34C298.265 1153.15 306.928 1153.57 313.403 1152.73C327.936 1150.87 340.782 1148.76 352.449 1144.61C361.914 1141.23 369.699 1135.8 381.019 1134.3C396.952 1132.18 420.321 1146.31 423.159 1154.72C349.44 1154.72 275.7 1154.72 201.982 1154.72ZM270.787 923.734C271.019 916.537 276.61 913.408 281.739 910.252C292.151 903.844 303.592 897.494 317.451 893.994C329.367 890.984 343.494 894.604 346.497 902.123C349.848 910.511 333.262 914.835 327.213 916.993C314.951 921.369 304.979 928.386 292.691 932.26C285.953 934.384 277.032 932.686 273.644 929.087C272.165 927.516 271.957 925.706 270.787 923.734ZM274.834 94.5748C274.447 73.9642 287.464 66.6223 297.928 55.3177C302.451 50.2955 306.975 45.2714 311.499 40.2491C316.974 33.0096 321.232 25.395 326.498 17.8445C330.068 11.8973 333.64 5.94775 337.211 0C346.733 0 356.259 0 365.781 0C364.879 5.87939 356.374 17.0221 352.925 21.8094C338.265 42.1545 306.468 77.6649 323.403 110.435C330.921 124.983 347.435 134.499 362.21 143.15C381.704 154.563 403.605 163.742 424.111 174.476C434.34 179.831 443.487 186.16 452.681 192.32C464.787 200.431 474.48 212.543 477.918 227.81C479.717 235.802 477.981 245.322 476.489 252.792C474.351 263.499 481.31 280.093 485.536 286.102C498.084 303.944 517.797 313.438 539.104 323.971C553.507 331.091 569.384 337.198 579.578 347.763C586.331 354.762 592.676 362.094 595.767 372.15C599.336 383.76 593.772 401.892 591.482 413.192C588.526 427.771 596.518 435.99 583.149 444.121C576.854 447.951 568.54 449.606 560.769 452.25C556.056 453.854 551.865 456.15 546.246 457.009C537.146 458.399 525.191 452.563 522.914 448.285C519.079 441.081 534.319 431.611 538.151 427.467C549.814 414.859 566.626 394.076 559.341 369.97C552.122 346.087 527.477 340.516 504.82 329.523C487.564 321.15 471.991 313.331 461.728 299.188C457.036 292.721 452.658 281.592 454.823 270.637C456.125 264.048 457.793 255.286 456.252 247.638C453.217 232.582 447.685 222.622 438.634 212.941C429.164 202.812 414.072 195.9 400.541 189.148C374.812 176.31 346.14 165.351 321.974 151.081C305.906 141.592 288.892 128.598 280.548 112.816C278.67 109.262 277.186 105.386 276.025 101.316C275.628 99.0691 275.231 96.8214 274.834 94.5748ZM334.593 301.17C336.532 304.632 337.152 307.883 339.354 310.885C347.846 322.462 360.208 333.086 372.686 341.419C385.238 349.801 396.763 359.042 410.779 366.401C427.241 375.043 453.918 383.427 463.871 396.934C470.795 406.331 469.096 422.705 465.061 433.614C462.76 440.024 460.459 446.436 458.157 452.846C451.321 469.059 442.732 490.596 452.681 509.551C456.666 517.144 463.963 522.871 471.728 527.395C478.729 531.475 502.178 543.127 514.106 536.516C519.637 533.45 516.559 526.466 514.344 522.24C510.237 514.405 504.425 508.039 499.345 501.025C497.524 498.511 494.427 494.558 495.536 489.922C496.707 485.026 502.475 481.881 501.011 475.25C499.072 466.468 491.856 458.081 494.107 446.898C494.821 442.867 495.536 438.834 496.25 434.803C502.67 413.59 515.06 381.8 489.822 369.177C484.31 366.42 477.89 364.847 471.727 362.634C458.481 357.878 444.22 353.309 432.92 346.772C424.684 342.008 415.577 336.369 409.349 329.919C404.747 325.888 400.143 321.855 395.541 317.824C387.432 312.393 379.608 306.671 371.018 301.567C365.144 298.075 334.151 281.603 334.593 301.17ZM338.64 93.3851C338.048 63.5786 368.741 40.0117 384.351 21.8101C389.374 15.9528 398.844 7.81726 400.779 0.000610352C407.921 0.000610352 415.064 0.000610352 422.206 0.000610352C420.977 4.79211 413.634 11.8776 410.302 15.6639C397.374 30.355 363.934 58.1619 377.447 85.8507C386.324 104.039 411.045 110.738 432.444 118.565C455.833 127.12 478.076 138.493 497.44 150.684C512.306 160.044 524.115 172.122 531.724 187.562C536.126 196.495 537.717 206.591 540.771 216.708C544.846 230.208 548.857 243.773 555.056 255.569C563.144 270.961 577.889 282.54 592.673 292.447C597.572 295.73 602.058 300.242 606.005 304.343C613.019 311.631 621.182 318.571 629.099 325.161C643.516 337.161 660.688 346.816 684.573 350.936C692.725 352.342 706.335 354.039 712.666 350.143C719.239 346.098 721.568 336.064 713.856 331.506C703.557 325.418 682.032 327.891 668.859 324.566C648.54 319.437 629.516 307.095 617.672 294.826C601.506 278.08 583.259 261.925 576.008 237.923C571.417 222.726 576.219 199.268 569.58 185.183C562.07 169.253 547.209 158.435 535.296 146.124C528.902 139.517 520.9 132.748 512.916 127.487C496.479 116.656 479.734 107.33 458.633 100.126C442.035 94.4586 421.61 91.7614 412.922 79.5061C408.836 73.7424 410.191 62.601 412.446 56.1107C418.41 38.9407 430.458 24.5444 442.444 12.0951C445.133 9.302 456.471 2.44202 457.443 0.000610352C492.596 0.000610352 527.759 0.000610352 562.913 0.000610352C569.601 4.51526 606.089 13.1201 621.957 10.7069C639.071 8.10437 649.67 6.3158 661.716 0.000610352C679.333 0.000610352 696.954 0.000610352 714.57 0.000610352C712.695 4.99292 698.423 12.8444 692.905 15.6639C683.714 20.3595 673.578 23.6975 661.479 26.1719C630.067 32.5948 593.601 23.7683 567.913 18.4391C559.891 16.7753 551.593 16.3939 542.915 15.2671C538.233 15.333 533.549 15.3989 528.868 15.4655C524.821 15.7957 520.773 16.1266 516.726 16.4569C501.61 19.1871 489.106 23.7863 478.871 30.5342C473.863 33.835 467.545 39.7126 469.823 48.1803C473.077 60.2748 494.576 74.9131 506.964 79.903C510.891 81.4847 517.275 83.6564 523.391 82.8772C539.796 80.7877 561.734 74.2694 580.531 76.9294C599.671 79.6381 613.301 85.7195 629.813 90.0153C640.106 92.6927 651.024 92.7899 663.383 94.3771C671.816 95.4602 684.564 94.009 691.953 92.9895C712.089 90.2101 730.773 88.8956 749.33 85.4552C756.447 84.1359 763.484 83.223 770.043 81.688C772.027 81.2917 774.011 80.895 775.996 80.4982C775.996 87.767 775.996 95.0388 775.996 102.308C771.076 103.299 766.155 104.29 761.234 105.282C755.283 105.943 749.33 106.603 743.378 107.265C730.841 109.445 718.299 111.627 705.761 113.807C695.184 116.037 684.738 117.131 672.43 118.765C668.383 118.897 664.335 119.029 660.288 119.161C652.27 118.076 644.866 117.717 637.67 116.187C621.899 112.833 607.117 108.165 591.959 104.291C580.439 101.347 553.852 98.885 554.818 112.817C555.753 126.291 582.969 125.763 598.387 128.083C606.799 129.075 615.213 130.066 623.624 131.057C654.387 136.642 688.158 139.997 720.761 133.239C732.604 130.783 748.519 134.409 745.759 146.126C741.703 163.349 700.301 159.061 678.382 162.384C669.756 163.692 660.855 164.458 653.145 166.547C635.198 171.411 622.315 182.42 611.72 193.512C604.416 201.157 594.236 211.092 597.435 227.019C602.169 250.596 618.053 263.398 636.242 275.595C640.686 279.031 645.131 282.469 649.575 285.905C660.911 293.323 673.57 300.305 689.573 303.75C713.1 308.813 746.143 303.347 762.426 314.06C781.3 326.478 764.498 354.577 752.664 362.437C737.149 372.742 717.818 378.872 697.668 385.436C690.076 387.909 679.585 391.743 669.098 390.988C655.566 390.014 646.697 386.992 638.624 381.669C624.153 372.129 619.404 355.73 609.816 342.015C605.119 335.297 599.978 329.409 594.341 323.576C585.906 314.849 572.696 310.222 560.771 304.344C546.869 297.491 534.98 288.503 528.391 275.595C524.295 267.568 522.942 258.229 520.296 248.829C512.515 221.172 508.969 194.326 486.489 179.236C467.109 166.228 447.748 156.708 422.922 147.91C395.226 138.095 362.646 129.482 346.26 110.239C343.909 107.479 341.595 104.017 340.307 100.524C339.751 98.1437 339.195 95.764 338.64 93.3851ZM372.448 809.135C373.553 792.526 383.091 792.365 401.018 789.903C405.858 789.903 410.7 789.903 415.541 789.903C425.41 788.561 436.132 788.826 438.396 781.377C442.46 768.008 424.611 764.521 415.064 761.352C401.49 756.846 375.615 741.255 379.828 723.086C382.804 710.253 395.171 704.956 407.921 700.285C430.821 691.897 462.496 677.671 492.916 688.786C499.317 691.125 505.734 694.232 509.82 698.501C514.526 703.417 524.779 718.562 522.915 728.241C521.03 738.03 516.459 744.557 512.439 752.43C504.985 767.032 499.139 782.093 484.346 790.498C472.332 797.324 456.528 800.887 441.015 804.773C433.454 806.667 426.251 807.787 419.35 810.126C411.653 813.364 403.953 816.603 396.256 819.841C391.764 821.448 384.202 822.556 379.59 820.238C374.329 817.593 374.887 814.351 372.448 809.135ZM428.159 749.257C434.672 756.535 451.834 758.082 463.395 753.223C466.285 752.008 471.323 749.918 470.299 745.689C466.75 731.032 428.796 736.204 428.159 749.257ZM517.915 1154.72C520.675 1137.14 522.433 1116.64 531.486 1103.76C543.608 1086.51 563.661 1077.75 584.34 1067.68C611.066 1054.66 646.176 1050.37 656.24 1023.46C659.325 1015.22 660.324 1002.13 656.24 993.921C650.731 982.843 635.696 975.85 620.529 972.706C607.596 970.025 595.626 974.435 592.197 981.628C589.292 987.722 595.444 991.398 599.102 993.524C608.109 998.758 631.598 1010.18 618.624 1023.07C613.993 1027.67 599.945 1024.3 594.816 1022.47C580.031 1017.2 559.309 1002.76 555.533 988.568C552.857 978.51 558.733 971.112 563.628 965.965C579.496 949.28 625.442 945.06 651.004 957.638C665.074 964.561 676.777 974.673 681.717 989.163C688.384 1008.72 674.933 1045.58 665.766 1056.97C658.296 1066.25 645.992 1067.25 632.434 1071.64C625.133 1074.02 617.831 1076.4 610.531 1078.78C595.615 1083.63 578.739 1087.49 565.295 1094.05C540.354 1106.21 528.453 1125.06 524.821 1154.72C522.518 1154.72 520.216 1154.72 517.915 1154.72ZM523.391 48.1796C523.252 30.2488 559.118 32.6014 577.436 35.689C590.629 37.9126 603.615 40.2383 615.767 43.4216C628.927 46.8693 641.121 51.1981 655.765 53.7318C677.037 57.412 707.742 54.4811 726.713 50.5598C739.199 47.9789 751.288 44.7019 761.235 39.8535C766.155 37.1442 771.076 34.4338 775.996 31.7246C775.996 39.2577 775.996 46.7938 775.996 54.327C773.108 54.7736 770.685 56.7749 768.378 57.8958C762.664 60.0763 756.95 62.2581 751.236 64.4387C732.925 70.6724 711.056 71.7968 688.621 75.145C681.2 76.2527 669.254 78.7936 660.765 77.7224C654.312 76.9078 648.325 76.7303 642.671 75.3434C623.911 70.7395 608.862 63.6804 588.865 59.8785C581.211 58.4232 570.216 57.1436 560.771 58.2926C550.58 59.5321 534.75 59.4728 528.63 55.7152C525.552 53.8253 525.07 51.3557 523.391 48.1796ZM537.676 1090.87C537.914 1090.81 538.153 1090.74 538.39 1090.68C538.39 1090.87 538.39 1091.07 538.39 1091.27C538.152 1091.14 537.914 1091.01 537.676 1090.87ZM541.962 1087.5C542.422 1086.9 542.011 1087.18 542.914 1086.91C543.073 1087.04 543.231 1087.17 543.39 1087.31C543.311 1087.44 543.231 1087.57 543.152 1087.7C542.755 1087.64 542.358 1087.57 541.962 1087.5ZM547.437 1154.72C549.081 1147.63 554.257 1141.01 558.389 1135.68C583.15 1103.77 634.364 1099.06 686.715 1090.48C712.31 1086.28 742.96 1089.36 761.948 1095.83C766.63 1097.42 771.313 1099 775.995 1100.59C775.995 1109.78 775.995 1118.96 775.995 1128.15C775.836 1128.21 775.678 1128.28 775.518 1128.35C762.089 1120.06 749.385 1113.36 730.283 1109.31C710.685 1105.16 685.486 1108.42 669.334 1112.49C648.502 1117.73 629.142 1122.94 610.528 1129.54C599.698 1133.37 589.207 1136.35 580.291 1141.63C573.757 1145.5 570.885 1150.48 565.53 1154.72C559.5 1154.72 553.468 1154.72 547.437 1154.72ZM591.482 661.623C591.562 661.293 591.641 660.962 591.721 660.631C592.038 660.566 592.355 660.499 592.673 660.433C592.752 660.499 592.832 660.566 592.911 660.631C592.911 660.962 592.911 661.293 592.911 661.623C592.673 661.755 592.435 661.887 592.197 662.02C591.958 661.887 591.72 661.755 591.482 661.623ZM596.482 1154.72C598.914 1152.97 603.009 1152.59 606.243 1151.54C612.662 1149.47 619.162 1147.23 624.813 1144.41C639.349 1137.14 652.657 1128.17 670.524 1123.79C705.039 1115.31 730.123 1130.77 748.377 1142.82C753.586 1146.26 759.149 1150.08 763.138 1154.52C763.138 1154.58 763.138 1154.65 763.138 1154.72C749.251 1154.72 735.361 1154.72 721.474 1154.72C719.935 1154.02 718.324 1152.37 716.712 1151.54C709.971 1148.1 702.78 1145.92 693.38 1144.6C677.392 1142.36 665.34 1150.7 656.478 1154.72C636.482 1154.72 616.479 1154.72 596.482 1154.72ZM608.624 750.051C609.015 730.376 653.707 742.671 647.669 759.37C645.018 766.703 630.977 772.47 620.29 767.102C615.769 764.832 611.096 759.645 609.576 755.008C609.259 753.355 608.941 751.703 608.624 750.051ZM775.995 429.847C763.638 429.429 749.975 425.318 735.997 427.864C720.664 430.658 706.901 434.729 695.047 440.553C684.86 445.558 674.87 451.769 662.668 454.828C643.856 459.545 623.883 447.047 621.479 435.002C620.877 431.981 622.511 429.232 623.622 427.467C630.857 415.979 647.151 423.896 663.382 421.717C671 420.695 677.705 420.363 683.856 418.347C690.776 416.079 697.365 412.607 702.903 409.028C714.81 401.336 727.997 386.572 751.472 391.581C755.629 392.468 759.667 394.068 763.137 395.546C765.338 396.484 774.871 400.356 775.994 401.494C775.995 410.945 775.995 420.397 775.995 429.847ZM775.995 204.416C770.361 204.878 764.725 205.341 759.091 205.803C740.523 208.914 708.286 211.577 705.047 226.621C703.778 232.513 708.475 236.34 711.951 238.517C723.4 245.691 740.868 247.221 756.948 250.612C763.296 251.801 769.647 252.991 775.995 254.181C775.916 263.565 775.836 272.951 775.757 282.335C775.518 282.335 775.281 282.335 775.043 282.335C763.507 273.099 731.112 272.208 711.237 269.05C682.766 264.527 650.071 254.268 640.527 234.552C635.063 223.262 642.112 212.617 648.145 206.199C666.403 186.78 705.716 188.813 740.521 182.804C748.448 181.435 756.408 180.288 763.376 178.045C767.582 176.658 771.789 175.27 775.994 173.882C775.995 184.059 775.995 194.239 775.995 204.416ZM775.995 736.172C775.995 747.472 775.995 758.776 775.995 770.076C765.085 767.827 753.253 757.576 738.14 759.964C726.01 761.881 725.733 772.747 716.95 777.213C713.72 778.856 707.497 779.126 702.904 778.403C688.052 776.066 677.135 772.442 674.096 760.361C673.062 756.252 673.559 750.527 675.525 747.672C682.554 737.458 709.051 730.374 725.284 727.25C730.185 726.307 737.208 725.575 742.902 726.457C751.205 727.744 758.602 729.722 765.519 732.207C768.814 733.39 772.009 735.776 775.995 736.172ZM775.995 527.99C775.995 537.374 775.995 546.76 775.995 556.144C761.46 556.082 748.536 561.778 745.044 571.213C740.157 584.42 744.939 609.533 756.234 613.444C773.616 619.462 767.561 586.14 775.995 583.307C775.916 611.656 775.836 640.015 775.757 668.364C769.303 667.617 762.467 663.329 757.425 660.83C737.347 650.881 724.374 640.05 717.903 618.599C715.252 609.808 713.772 596.459 715.761 586.281C717.524 577.254 716.721 568.861 719.094 561.1C724.438 543.624 736.081 531.351 758.139 527.791C764.016 526.843 770.148 527.897 775.995 527.99ZM725.76 19.0343C725.64 11.2751 729.13 7.41455 733.617 3.56946C735.051 2.3407 737.046 1.72571 737.902 0.000610352C749.646 0.000610352 761.394 0.000610352 773.138 0.000610352C770.916 2.31372 768.694 4.62732 766.472 6.9397C761.126 13.2363 758.604 20.7804 749.806 24.1891C738.237 28.6725 730.682 27.7434 725.76 19.0343ZM775.995 217.699C775.995 223.977 775.995 230.257 775.995 236.534C767.38 236.451 744.013 232.465 745.997 224.638C747.895 217.148 765.437 217.534 775.995 217.699ZM766.709 138.392C766.598 133.106 770.768 128.135 775.995 127.487C775.995 134.294 775.995 141.102 775.995 147.909C770.248 146.802 768.797 142.738 766.709 138.392Z" fill="url(#paint0_linear_218_2574)" fill-opacity="0.5"/>
<defs>
<linearGradient id="paint0_linear_218_2574" x1="387.333" y1="0" x2="387.333" y2="1154.72" gradientUnits="userSpaceOnUse">
<stop stop-color="#A1CAE4"/>
<stop offset="1" stop-color="#EAB375"/>
</linearGradient>
</defs>
</svg>
